<svg xmlns="http://www.w3.org/2000/svg" xmlns:xlink="http://www.w3.org/1999/xlink" xmlns:inkscape="http://www.inkscape.org/namespaces/inkscape" version="1.1" width="1600" height="682.84" viewBox="0 0 1600 682.84">
<defs>
<clipPath id="clip_0">
<path transform="matrix(1,0,0,-1,0,682.84)" d="M0 682.84H1600V0H0Z"/>
</clipPath>
</defs>
<g inkscape:groupmode="layer" inkscape:label="Layer 1">
<g clip-path="url(#clip_0)">
<path transform="matrix(1,0,0,-1,382.0069,528.0221)" d="M0 0 18.184-.037C18.827-.037 19.372-.259 19.817-.705 20.262-1.151 20.485-1.695 20.485-2.338 20.485-3.006 20.262-3.569 19.817-4.026 19.372-4.484 18.827-4.7 18.184-4.676H-2.153-2.338C-2.982-4.676-3.532-4.453-3.989-4.008-4.447-3.562-4.676-3.019-4.676-2.375V40.488C-4.676 41.156-4.447 41.713-3.989 42.158-3.532 42.603-2.982 42.826-2.338 42.826-1.695 42.826-1.145 42.603-.687 42.158-.229 41.713 0 41.156 0 40.488Z" fill="#707e99"/>
<path transform="matrix(1,0,0,-1,410.2665,520.5067)" d="M0 0C.68-1.572 1.602-2.945 2.765-4.119 3.928-5.295 5.301-6.229 6.884-6.921 8.467-7.614 10.174-7.961 12.005-7.961 13.836-7.961 15.543-7.614 17.126-6.921 18.71-6.229 20.09-5.295 21.265-4.119 22.44-2.945 23.361-1.572 24.03 0 24.697 1.57 25.031 3.247 25.031 5.029 25.031 6.834 24.697 8.529 24.03 10.113 23.361 11.695 22.44 13.075 21.265 14.25 20.09 15.425 18.71 16.352 17.126 17.033 15.543 17.714 13.836 18.054 12.005 18.054 10.199 18.054 8.505 17.714 6.921 17.033 5.338 16.352 3.958 15.425 2.784 14.25 1.608 13.075 .68 11.695 0 10.113-.681 8.529-1.02 6.834-1.02 5.029-1.02 3.247-.681 1.57 0 0M-4.304 11.949C-3.377 14.114-2.11 15.995-.501 17.59 1.107 19.186 2.988 20.448 5.14 21.375 7.293 22.303 9.581 22.767 12.005 22.767 14.455 22.767 16.749 22.303 18.89 21.375 21.029 20.448 22.897 19.186 24.494 17.59 26.089 15.995 27.35 14.114 28.278 11.949 29.206 9.784 29.67 7.478 29.67 5.029 29.67 2.603 29.206 .315 28.278-1.837 27.35-3.99 26.089-5.864 24.494-7.46 22.897-9.055 21.029-10.317 18.89-11.245 16.749-12.172 14.455-12.636 12.005-12.636 9.581-12.636 7.293-12.172 5.14-11.245 2.988-10.317 1.107-9.055-.501-7.46-2.11-5.864-3.377-3.99-4.304-1.837-5.232 .315-5.696 2.603-5.696 5.029-5.696 7.478-5.232 9.784-4.304 11.949" fill="#707e99"/>
<path transform="matrix(1,0,0,-1,447.841,515.4782)" d="M0 0C0-1.781 .34-3.458 1.02-5.029 1.701-6.6 2.622-7.974 3.785-9.148 4.948-10.324 6.321-11.257 7.905-11.95 9.488-12.643 11.195-12.989 13.026-12.989 14.856-12.989 16.563-12.643 18.147-11.95 19.73-11.257 21.103-10.324 22.266-9.148 23.429-7.974 24.345-6.6 25.013-5.029 25.681-3.458 26.015-1.781 26.015 0 26.015 1.805 25.681 3.5 25.013 5.084 24.345 6.667 23.429 8.047 22.266 9.222 21.103 10.397 19.73 11.324 18.147 12.005 16.563 12.686 14.856 13.025 13.026 13.025 11.22 13.025 9.525 12.686 7.942 12.005 6.358 11.324 4.979 10.397 3.804 9.222 2.628 8.047 1.701 6.667 1.02 5.084 .34 3.5 0 1.805 0 0M30.691-13.1V-13.323C30.665-15.946 30.19-18.351 29.262-20.541 28.334-22.731 27.078-24.611 25.495-26.182 23.912-27.753 22.056-28.971 19.928-29.837 17.801-30.703 15.537-31.136 13.137-31.136 10.886-31.136 8.708-30.728 6.606-29.912 4.502-29.095 2.709-27.945 1.225-26.46 .655-25.891 .371-25.266 .371-24.586 .371-23.905 .631-23.33 1.151-22.86 1.522-22.539 1.874-22.341 2.209-22.267 2.542-22.193 2.863-22.193 3.173-22.267 3.482-22.341 3.772-22.464 4.045-22.638 4.317-22.811 4.577-22.996 4.825-23.194 6.087-24.308 7.447-25.125 8.907-25.644 10.366-26.163 11.913-26.41 13.546-26.386 15.277-26.361 16.904-26.015 18.426-25.347 19.947-24.679 21.27-23.757 22.396-22.582 23.522-21.407 24.406-20.015 25.05-18.407 25.693-16.799 26.015-15.03 26.015-13.1V-11.987C24.382-13.744 22.458-15.13 20.244-16.144 18.03-17.158 15.624-17.665 13.026-17.665 10.601-17.665 8.313-17.201 6.16-16.274 4.008-15.346 2.128-14.084 .52-12.488-1.089-10.893-2.357-9.019-3.284-6.866-4.212-4.713-4.676-2.425-4.676 0-4.676 2.449-4.212 4.755-3.284 6.921-2.357 9.086-1.089 10.966 .52 12.562 2.128 14.158 4.008 15.419 6.16 16.347 8.313 17.275 10.601 17.739 13.026 17.739 15.624 17.739 18.03 17.231 20.244 16.217 22.458 15.202 24.382 13.805 26.015 12.024V15.438C26.015 16.106 26.243 16.656 26.701 17.089 27.159 17.522 27.709 17.739 28.353 17.739 28.996 17.739 29.546 17.522 30.004 17.089 30.462 16.656 30.691 16.106 30.691 15.438Z" fill="#707e99"/>
<path transform="matrix(1,0,0,-1,490.6666,530.3231)" d="M0 0C0-.668-.229-1.231-.687-1.688-1.145-2.146-1.695-2.375-2.338-2.375-2.982-2.375-3.532-2.146-3.989-1.688-4.447-1.231-4.676-.668-4.676 0V30.246C-4.676 30.889-4.441 31.439-3.97 31.897-3.501 32.354-2.944 32.584-2.301 32.584-1.658 32.584-1.113 32.354-.668 31.897-.223 31.439 0 30.889 0 30.246ZM-4.342 42.604C-3.798 43.147-3.142 43.42-2.375 43.42-1.583 43.42-.903 43.147-.334 42.604 .235 42.059 .52 41.379 .52 40.562 .52 39.82 .235 39.171-.334 38.614-.903 38.057-1.583 37.779-2.375 37.779-3.142 37.779-3.798 38.057-4.342 38.614-4.886 39.171-5.159 39.82-5.159 40.562-5.159 41.379-4.886 42.059-4.342 42.604" fill="#707e99"/>
<path transform="matrix(1,0,0,-1,503.4699,515.34896)" d="M0 0C-1.286 .532-2.425 1.175-3.414 1.93-4.404 2.684-5.202 3.582-5.808 4.62-6.414 5.659-6.717 6.884-6.717 8.294-6.717 9.803-6.383 11.145-5.715 12.321-5.047 13.496-4.175 14.473-3.099 15.253-2.022 16.032-.792 16.626 .594 17.034 1.979 17.442 3.377 17.646 4.787 17.646 5.851 17.646 6.908 17.541 7.961 17.331 9.011 17.121 9.995 16.805 10.911 16.384 11.825 15.964 12.655 15.438 13.397 14.807 14.14 14.176 14.733 13.428 15.178 12.562 15.425 12.067 15.513 11.616 15.438 11.208 15.364 10.799 15.19 10.459 14.919 10.187 14.622 9.866 14.257 9.655 13.824 9.556 13.391 9.457 12.976 9.506 12.581 9.704 11.517 10.916 10.41 11.857 9.259 12.525 8.109 13.193 6.729 13.527 5.122 13.527 4.255 13.527 3.396 13.434 2.542 13.248 1.689 13.063 .921 12.766 .241 12.358-.439 11.95-.989 11.424-1.41 10.781-1.831 10.137-2.041 9.346-2.041 8.406-2.041 7.539-1.849 6.803-1.466 6.198-1.083 5.591-.556 5.06 .111 4.602 .78 4.144 1.552 3.749 2.431 3.414 3.309 3.08 4.243 2.765 5.233 2.468 6.816 1.973 8.319 1.46 9.742 .928 11.164 .395 12.42-.254 13.509-1.02 14.597-1.787 15.463-2.709 16.106-3.785 16.749-4.862 17.071-6.167 17.071-7.7 17.071-9.136 16.756-10.465 16.125-11.69 15.494-12.915 14.634-13.978 13.546-14.881 12.456-15.784 11.182-16.49 9.723-16.996 8.263-17.503 6.692-17.757 5.01-17.757 3.749-17.757 2.511-17.633 1.299-17.386 .087-17.139-1.057-16.762-2.133-16.254-3.21-15.748-4.182-15.11-5.047-14.343-5.913-13.577-6.605-12.673-7.125-11.634-7.497-10.966-7.602-10.353-7.441-9.797-7.28-9.24-6.971-8.832-6.513-8.573-6.055-8.312-5.524-8.232-4.917-8.331-4.311-8.43-3.761-8.789-3.266-9.407-2.4-10.867-1.293-11.938 .056-12.618 1.404-13.298 3.056-13.638 5.01-13.638 5.975-13.638 6.908-13.502 7.812-13.23 8.715-12.958 9.519-12.574 10.224-12.079 10.929-11.585 11.492-10.979 11.913-10.261 12.333-9.544 12.544-8.752 12.544-7.886 12.544-6.946 12.308-6.141 11.838-5.474 11.368-4.806 10.731-4.225 9.927-3.729 9.123-3.235 8.208-2.808 7.181-2.449 6.154-2.091 5.084-1.763 3.971-1.466 2.61-1.02 1.286-.532 0 0" fill="#707e99"/>
<path transform="matrix(1,0,0,-1,533.9012,497.77653)" d="M0 0H4.935C5.604 0 6.16-.223 6.605-.668 7.051-1.114 7.273-1.658 7.273-2.301 7.273-2.994 7.051-3.563 6.605-4.008 6.16-4.453 5.604-4.677 4.935-4.677H0V-32.62C0-33.264-.229-33.808-.687-34.254-1.145-34.699-1.695-34.921-2.338-34.921-2.982-34.921-3.526-34.699-3.971-34.254-4.416-33.808-4.639-33.264-4.639-32.62V-4.677H-8.721C-9.365-4.677-9.915-4.447-10.373-3.99-10.831-3.532-11.059-2.969-11.059-2.301-11.059-1.658-10.831-1.114-10.373-.668-9.915-.223-9.365 0-8.721 0H-4.639V10.28C-4.639 10.947-4.416 11.497-3.971 11.931-3.526 12.363-2.982 12.58-2.338 12.58-1.695 12.58-1.145 12.363-.687 11.931-.229 11.497 0 10.947 0 10.28Z" fill="#707e99"/>
<path transform="matrix(1,0,0,-1,550.1923,530.3231)" d="M0 0C0-.668-.229-1.231-.687-1.688-1.145-2.146-1.695-2.375-2.338-2.375-2.982-2.375-3.532-2.146-3.989-1.688-4.448-1.231-4.676-.668-4.676 0V30.246C-4.676 30.889-4.441 31.439-3.971 31.897-3.501 32.354-2.944 32.584-2.301 32.584-1.658 32.584-1.113 32.354-.668 31.897-.223 31.439 0 30.889 0 30.246ZM-4.342 42.604C-3.798 43.147-3.142 43.42-2.375 43.42-1.583 43.42-.903 43.147-.334 42.604 .235 42.059 .52 41.379 .52 40.562 .52 39.82 .235 39.171-.334 38.614-.903 38.057-1.583 37.779-2.375 37.779-3.142 37.779-3.798 38.057-4.342 38.614-4.886 39.171-5.159 39.82-5.159 40.562-5.159 41.379-4.886 42.059-4.342 42.604" fill="#707e99"/>
<path transform="matrix(1,0,0,-1,560.2125,515.2932)" d="M0 0-.074-.148C-.074-.173-.069-.185-.056-.185-.043-.185-.037-.198-.037-.223-.037-.247-.025-.259 0-.259 0-1.943 .315-3.55 .946-5.084 1.577-6.618 2.449-7.973 3.563-9.148 4.676-10.323 5.993-11.269 7.515-11.987 9.037-12.704 10.688-13.063 12.469-13.063 14.102-13.088 15.648-12.853 17.108-12.357 18.568-11.863 19.928-11.046 21.19-9.908 21.437-9.711 21.697-9.525 21.969-9.352 22.242-9.179 22.532-9.055 22.842-8.98 23.151-8.907 23.478-8.907 23.825-8.98 24.171-9.055 24.53-9.253 24.901-9.574 25.396-10.019 25.643-10.582 25.643-11.263 25.643-11.943 25.359-12.568 24.79-13.137 23.306-14.622 21.511-15.772 19.409-16.588 17.306-17.405 15.128-17.813 12.877-17.813 10.452-17.813 8.17-17.362 6.03-16.459 3.89-15.555 2.022-14.319 .426-12.748-1.169-11.177-2.431-9.327-3.358-7.2-4.286-5.072-4.75-2.796-4.75-.371L-4.676-.148C-4.726-.099-4.75-.05-4.75 0-4.75 2.425-4.286 4.707-3.358 6.847-2.431 8.987-1.169 10.855 .426 12.451 2.022 14.046 3.89 15.308 6.03 16.236 8.17 17.164 10.452 17.628 12.877 17.628 15.128 17.628 17.306 17.22 19.409 16.403 21.511 15.586 23.306 14.437 24.79 12.952 25.359 12.383 25.643 11.758 25.643 11.078 25.643 10.397 25.383 9.821 24.864 9.352 24.493 9.03 24.14 8.833 23.806 8.758 23.472 8.684 23.151 8.684 22.842 8.758 22.532 8.833 22.242 8.956 21.969 9.129 21.697 9.303 21.437 9.488 21.19 9.686 19.928 10.799 18.568 11.616 17.108 12.136 15.648 12.655 14.102 12.902 12.469 12.878 10.712 12.852 9.079 12.488 7.57 11.783 6.061 11.078 4.744 10.132 3.619 8.944 2.492 7.756 1.608 6.389 .965 4.843 .321 3.297 0 1.682 0 0" fill="#707e99"/>
<path transform="matrix(1,0,0,-1,596.5808,515.34896)" d="M0 0C-1.286 .532-2.425 1.175-3.414 1.93-4.404 2.684-5.202 3.582-5.808 4.62-6.414 5.659-6.717 6.884-6.717 8.294-6.717 9.803-6.383 11.145-5.715 12.321-5.047 13.496-4.175 14.473-3.099 15.253-2.022 16.032-.792 16.626 .594 17.034 1.979 17.442 3.377 17.646 4.787 17.646 5.851 17.646 6.908 17.541 7.961 17.331 9.011 17.121 9.995 16.805 10.911 16.384 11.826 15.964 12.655 15.438 13.397 14.807 14.14 14.176 14.733 13.428 15.178 12.562 15.425 12.067 15.513 11.616 15.438 11.208 15.364 10.799 15.19 10.459 14.919 10.187 14.622 9.866 14.257 9.655 13.824 9.556 13.391 9.457 12.976 9.506 12.581 9.704 11.517 10.916 10.41 11.857 9.259 12.525 8.109 13.193 6.729 13.527 5.122 13.527 4.255 13.527 3.396 13.434 2.542 13.248 1.689 13.063 .921 12.766 .241 12.358-.439 11.95-.989 11.424-1.41 10.781-1.831 10.137-2.041 9.346-2.041 8.406-2.041 7.539-1.849 6.803-1.466 6.198-1.083 5.591-.556 5.06 .111 4.602 .78 4.144 1.552 3.749 2.431 3.414 3.309 3.08 4.243 2.765 5.233 2.468 6.816 1.973 8.319 1.46 9.742 .928 11.164 .395 12.42-.254 13.509-1.02 14.597-1.787 15.463-2.709 16.106-3.785 16.749-4.862 17.071-6.167 17.071-7.7 17.071-9.136 16.756-10.465 16.125-11.69 15.494-12.915 14.634-13.978 13.546-14.881 12.456-15.784 11.182-16.49 9.723-16.996 8.263-17.503 6.692-17.757 5.01-17.757 3.749-17.757 2.511-17.633 1.299-17.386 .087-17.139-1.057-16.762-2.133-16.254-3.21-15.748-4.182-15.11-5.047-14.343-5.913-13.577-6.605-12.673-7.125-11.634-7.497-10.966-7.602-10.353-7.441-9.797-7.28-9.24-6.971-8.832-6.513-8.573-6.055-8.312-5.524-8.232-4.917-8.331-4.311-8.43-3.761-8.789-3.266-9.407-2.4-10.867-1.293-11.938 .056-12.618 1.404-13.298 3.056-13.638 5.01-13.638 5.975-13.638 6.908-13.502 7.812-13.23 8.715-12.958 9.519-12.574 10.224-12.079 10.929-11.585 11.492-10.979 11.913-10.261 12.333-9.544 12.544-8.752 12.544-7.886 12.544-6.946 12.308-6.141 11.839-5.474 11.368-4.806 10.731-4.225 9.927-3.729 9.123-3.235 8.208-2.808 7.181-2.449 6.154-2.091 5.084-1.763 3.971-1.466 2.61-1.02 1.286-.532 0 0" fill="#707e99"/>
<path transform="matrix(1,0,0,-1,645.1583,508.37196)" d="M0 0C-1.732 .655-3.278 1.484-4.638 2.487-6 3.488-7.1 4.688-7.942 6.087-8.783 7.484-9.203 9.135-9.203 11.041-9.203 12.97-8.783 14.708-7.942 16.255-7.1 17.801-5.993 19.112-4.62 20.189-3.247 21.265-1.695 22.093 .038 22.675 1.768 23.256 3.526 23.547 5.307 23.547 6.741 23.547 8.14 23.398 9.501 23.102 10.861 22.805 12.136 22.365 13.323 21.784 14.51 21.202 15.586 20.485 16.552 19.631 17.517 18.778 18.32 17.782 18.964 16.644 19.236 16.199 19.297 15.747 19.149 15.289 19.001 14.832 18.79 14.467 18.518 14.195 18.172 13.873 17.721 13.681 17.164 13.62 16.608 13.558 16.069 13.725 15.55 14.121 14.114 15.877 12.581 17.108 10.948 17.813 9.315 18.518 7.46 18.871 5.381 18.871 4.218 18.871 3.056 18.704 1.893 18.37 .73 18.036-.328 17.547-1.28 16.904-2.233 16.261-3.012 15.451-3.618 14.473-4.225 13.496-4.527 12.364-4.527 11.077-4.527 9.717-4.169 8.585-3.451 7.682-2.734 6.779-1.825 6.018-.723 5.4 .377 4.781 1.583 4.28 2.895 3.897 4.206 3.513 5.456 3.173 6.643 2.876 8.474 2.307 10.262 1.664 12.005 .947 13.75 .228 15.296-.65 16.644-1.688 17.992-2.727 19.075-3.965 19.892-5.399 20.708-6.835 21.117-8.554 21.117-10.558 21.117-12.71 20.689-14.658 19.836-16.403 18.982-18.147 17.832-19.644 16.384-20.893 14.937-22.143 13.254-23.108 11.338-23.788 9.42-24.468 7.41-24.809 5.307-24.809 3.55-24.809 1.856-24.573 .223-24.103-1.41-23.634-2.913-22.996-4.286-22.192-5.659-21.388-6.859-20.436-7.886-19.334-8.913-18.234-9.699-17.052-10.242-15.79-10.614-14.999-10.669-14.338-10.409-13.805-10.15-13.273-9.772-12.871-9.277-12.599-8.708-12.278-8.171-12.209-7.663-12.395-7.156-12.581-6.631-13.02-6.086-13.712-5.616-14.702-4.979-15.593-4.175-16.384-3.371-17.176-2.461-17.85-1.447-18.407-.433-18.964 .669-19.39 1.856-19.687 3.043-19.984 4.268-20.132 5.529-20.132 6.841-20.132 8.146-19.935 9.445-19.539 10.744-19.144 11.913-18.549 12.952-17.757 13.991-16.966 14.832-15.982 15.475-14.807 16.118-13.632 16.44-12.278 16.44-10.744 16.44-9.333 16.118-8.152 15.475-7.2 14.832-6.247 13.978-5.431 12.915-4.75 11.851-4.07 10.651-3.488 9.315-3.006 7.979-2.524 6.63-2.06 5.27-1.615 3.488-1.194 1.732-.655 0 0" fill="#707e99"/>
<path transform="matrix(1,0,0,-1,676.0529,520.5067)" d="M0 0C.68-1.572 1.602-2.945 2.765-4.119 3.928-5.295 5.301-6.229 6.884-6.921 8.467-7.614 10.174-7.961 12.005-7.961 13.836-7.961 15.543-7.614 17.127-6.921 18.71-6.229 20.09-5.295 21.265-4.119 22.44-2.945 23.361-1.572 24.03 0 24.698 1.57 25.031 3.247 25.031 5.029 25.031 6.834 24.698 8.529 24.03 10.113 23.361 11.695 22.44 13.075 21.265 14.25 20.09 15.425 18.71 16.352 17.127 17.033 15.543 17.714 13.836 18.054 12.005 18.054 10.199 18.054 8.505 17.714 6.921 17.033 5.338 16.352 3.958 15.425 2.784 14.25 1.608 13.075 .68 11.695 0 10.113-.681 8.529-1.02 6.834-1.02 5.029-1.02 3.247-.681 1.57 0 0M-4.304 11.949C-3.377 14.114-2.11 15.995-.501 17.59 1.107 19.186 2.988 20.448 5.14 21.375 7.293 22.303 9.581 22.767 12.005 22.767 14.455 22.767 16.749 22.303 18.89 21.375 21.029 20.448 22.897 19.186 24.494 17.59 26.089 15.995 27.351 14.114 28.278 11.949 29.206 9.784 29.67 7.478 29.67 5.029 29.67 2.603 29.206 .315 28.278-1.837 27.351-3.99 26.089-5.864 24.494-7.46 22.897-9.055 21.029-10.317 18.89-11.245 16.749-12.172 14.455-12.636 12.005-12.636 9.581-12.636 7.293-12.172 5.14-11.245 2.988-10.317 1.107-9.055-.501-7.46-2.11-5.864-3.377-3.99-4.304-1.837-5.232 .315-5.696 2.603-5.696 5.029-5.696 7.478-5.232 9.784-4.304 11.949" fill="#707e99"/>
<path transform="matrix(1,0,0,-1,715.7811,530.3969)" d="M0 0C0-.644-.229-1.187-.687-1.633-1.145-2.078-1.695-2.301-2.339-2.301-2.982-2.301-3.533-2.078-3.99-1.633-4.448-1.187-4.677-.644-4.677 0V42.9C-4.677 43.568-4.448 44.118-3.99 44.551-3.533 44.984-2.982 45.2-2.339 45.2-1.695 45.2-1.145 44.984-.687 44.551-.229 44.118 0 43.568 0 42.9Z" fill="#707e99"/>
<path transform="matrix(1,0,0,-1,722.8685,500.0407)" d="M0 0C0 .669 .223 1.218 .668 1.651 1.113 2.084 1.682 2.301 2.375 2.301 3.018 2.301 3.556 2.084 3.989 1.651 4.422 1.218 4.639 .669 4.639 0V-15.55-15.735C4.663-19.693 5.548-22.724 7.292-24.827 9.037-26.93 11.454-27.981 14.547-27.981 16.081-27.981 17.522-27.672 18.87-27.053 20.219-26.436 21.394-25.576 22.396-24.474 23.398-23.373 24.189-22.081 24.771-20.596 25.352-19.112 25.643-17.504 25.643-15.772V-.074C25.643 .569 25.866 1.126 26.311 1.596 26.756 2.065 27.301 2.301 27.945 2.301 28.587 2.301 29.138 2.065 29.596 1.596 30.053 1.126 30.282 .569 30.282-.074V-30.319C30.282-30.987 30.053-31.55 29.596-32.008 29.138-32.466 28.587-32.694 27.945-32.694 27.276-32.694 26.725-32.466 26.293-32.008 25.86-31.55 25.643-30.987 25.643-30.319V-26.348C24.184-28.254 22.452-29.781 20.448-30.931 18.444-32.082 16.303-32.657 14.028-32.657 11.875-32.657 9.939-32.255 8.22-31.451 6.5-30.647 5.029-29.503 3.804-28.018 2.579-26.534 1.638-24.741 .984-22.637 .327-20.535 0-18.184 0-15.586V-15.55Z" fill="#707e99"/>
<path transform="matrix(1,0,0,-1,768.4411,497.77653)" d="M0 0H4.935C5.604 0 6.16-.223 6.605-.668 7.051-1.114 7.273-1.658 7.273-2.301 7.273-2.994 7.051-3.563 6.605-4.008 6.16-4.453 5.604-4.677 4.935-4.677H0V-32.62C0-33.264-.229-33.808-.687-34.254-1.145-34.699-1.695-34.921-2.338-34.921-2.982-34.921-3.526-34.699-3.971-34.254-4.416-33.808-4.639-33.264-4.639-32.62V-4.677H-8.721C-9.365-4.677-9.915-4.447-10.373-3.99-10.831-3.532-11.059-2.969-11.059-2.301-11.059-1.658-10.831-1.114-10.373-.668-9.915-.223-9.365 0-8.721 0H-4.639V10.28C-4.639 10.947-4.416 11.497-3.971 11.931-3.526 12.363-2.982 12.58-2.338 12.58-1.695 12.58-1.145 12.363-.687 11.931-.229 11.497 0 10.947 0 10.28Z" fill="#707e99"/>
<path transform="matrix(1,0,0,-1,784.7322,530.3231)" d="M0 0C0-.668-.229-1.231-.687-1.688-1.145-2.146-1.695-2.375-2.338-2.375-2.982-2.375-3.532-2.146-3.989-1.688-4.448-1.231-4.676-.668-4.676 0V30.246C-4.676 30.889-4.441 31.439-3.971 31.897-3.501 32.354-2.944 32.584-2.301 32.584-1.658 32.584-1.113 32.354-.668 31.897-.223 31.439 0 30.889 0 30.246ZM-4.342 42.604C-3.798 43.147-3.142 43.42-2.375 43.42-1.583 43.42-.903 43.147-.334 42.604 .235 42.059 .52 41.379 .52 40.562 .52 39.82 .235 39.171-.334 38.614-.903 38.057-1.583 37.779-2.375 37.779-3.142 37.779-3.798 38.057-4.342 38.614-4.886 39.171-5.159 39.82-5.159 40.562-5.159 41.379-4.886 42.059-4.342 42.604" fill="#707e99"/>
<path transform="matrix(1,0,0,-1,795.6984,520.5067)" d="M0 0C.68-1.572 1.602-2.945 2.765-4.119 3.928-5.295 5.301-6.229 6.884-6.921 8.467-7.614 10.174-7.961 12.005-7.961 13.836-7.961 15.543-7.614 17.126-6.921 18.71-6.229 20.09-5.295 21.265-4.119 22.44-2.945 23.361-1.572 24.03 0 24.697 1.57 25.031 3.247 25.031 5.029 25.031 6.834 24.697 8.529 24.03 10.113 23.361 11.695 22.44 13.075 21.265 14.25 20.09 15.425 18.71 16.352 17.126 17.033 15.543 17.714 13.836 18.054 12.005 18.054 10.199 18.054 8.505 17.714 6.921 17.033 5.338 16.352 3.958 15.425 2.784 14.25 1.608 13.075 .68 11.695 0 10.113-.681 8.529-1.02 6.834-1.02 5.029-1.02 3.247-.681 1.57 0 0M-4.304 11.949C-3.377 14.114-2.11 15.995-.501 17.59 1.107 19.186 2.988 20.448 5.14 21.375 7.293 22.303 9.581 22.767 12.005 22.767 14.455 22.767 16.749 22.303 18.89 21.375 21.029 20.448 22.897 19.186 24.494 17.59 26.089 15.995 27.35 14.114 28.278 11.949 29.206 9.784 29.67 7.478 29.67 5.029 29.67 2.603 29.206 .315 28.278-1.837 27.35-3.99 26.089-5.864 24.494-7.46 22.897-9.055 21.029-10.317 18.89-11.245 16.749-12.172 14.455-12.636 12.005-12.636 9.581-12.636 7.293-12.172 5.14-11.245 2.988-10.317 1.107-9.055-.501-7.46-2.11-5.864-3.377-3.99-4.304-1.837-5.232 .315-5.696 2.603-5.696 5.029-5.696 7.478-5.232 9.784-4.304 11.949" fill="#707e99"/>
<path transform="matrix(1,0,0,-1,860.9948,530.3969)" d="M0 0C0-.669-.223-1.225-.668-1.67-1.114-2.115-1.67-2.338-2.338-2.338-2.982-2.338-3.525-2.115-3.971-1.67-4.416-1.225-4.639-.669-4.639 0V15.512 15.698C-4.689 19.656-5.573 22.693-7.292 24.808-9.012 26.923-11.418 27.981-14.51 27.981-16.02 27.981-17.437 27.684-18.76 27.09-20.083 26.497-21.246 25.674-22.248 24.623-23.25 23.571-24.048 22.328-24.642 20.893-25.235 19.458-25.557 17.911-25.607 16.254V.074C-25.607-.594-25.836-1.157-26.293-1.615-26.751-2.073-27.301-2.301-27.945-2.301-28.588-2.301-29.138-2.073-29.596-1.615-30.054-1.157-30.282-.594-30.282 .074V30.319C-30.282 30.963-30.048 31.512-29.577 31.971-29.107 32.428-28.551 32.657-27.908 32.657-27.264 32.657-26.72 32.428-26.274 31.971-25.829 31.512-25.607 30.963-25.607 30.319V26.348C-24.147 28.229-22.422 29.744-20.429 30.895-18.438 32.045-16.305 32.62-14.028 32.62-11.901 32.62-9.977 32.224-8.258 31.432-6.538 30.64-5.065 29.508-3.841 28.037-2.616 26.565-1.677 24.783-1.02 22.693-.366 20.602-.025 18.271 0 15.698V15.512Z" fill="#707e99"/>
<path transform="matrix(1,0,0,-1,873.5011,515.34896)" d="M0 0C-1.286 .532-2.425 1.175-3.414 1.93-4.404 2.684-5.202 3.582-5.808 4.62-6.414 5.659-6.717 6.884-6.717 8.294-6.717 9.803-6.383 11.145-5.715 12.321-5.047 13.496-4.175 14.473-3.099 15.253-2.022 16.032-.792 16.626 .594 17.034 1.979 17.442 3.377 17.646 4.787 17.646 5.851 17.646 6.908 17.541 7.961 17.331 9.011 17.121 9.995 16.805 10.911 16.384 11.826 15.964 12.655 15.438 13.397 14.807 14.14 14.176 14.733 13.428 15.178 12.562 15.425 12.067 15.513 11.616 15.438 11.208 15.364 10.799 15.19 10.459 14.919 10.187 14.622 9.866 14.257 9.655 13.824 9.556 13.391 9.457 12.976 9.506 12.581 9.704 11.517 10.916 10.41 11.857 9.259 12.525 8.109 13.193 6.729 13.527 5.122 13.527 4.255 13.527 3.396 13.434 2.542 13.248 1.689 13.063 .921 12.766 .241 12.358-.439 11.95-.989 11.424-1.41 10.781-1.831 10.137-2.041 9.346-2.041 8.406-2.041 7.539-1.849 6.803-1.466 6.198-1.083 5.591-.557 5.06 .111 4.602 .78 4.144 1.552 3.749 2.431 3.414 3.308 3.08 4.243 2.765 5.233 2.468 6.816 1.973 8.319 1.46 9.742 .928 11.164 .395 12.42-.254 13.509-1.02 14.597-1.787 15.463-2.709 16.106-3.785 16.749-4.862 17.071-6.167 17.071-7.7 17.071-9.136 16.756-10.465 16.125-11.69 15.494-12.915 14.634-13.978 13.545-14.881 12.456-15.784 11.182-16.49 9.723-16.996 8.263-17.503 6.692-17.757 5.01-17.757 3.749-17.757 2.511-17.633 1.299-17.386 .087-17.139-1.057-16.762-2.133-16.254-3.21-15.748-4.182-15.11-5.047-14.343-5.913-13.577-6.605-12.673-7.125-11.634-7.497-10.966-7.602-10.353-7.441-9.797-7.28-9.24-6.971-8.832-6.513-8.573-6.055-8.312-5.524-8.232-4.917-8.331-4.311-8.43-3.761-8.789-3.266-9.407-2.4-10.867-1.293-11.938 .056-12.618 1.404-13.298 3.056-13.638 5.01-13.638 5.975-13.638 6.908-13.502 7.812-13.23 8.715-12.958 9.519-12.574 10.224-12.079 10.929-11.585 11.492-10.979 11.913-10.261 12.333-9.544 12.544-8.752 12.544-7.886 12.544-6.946 12.308-6.141 11.839-5.474 11.368-4.806 10.731-4.225 9.927-3.729 9.123-3.235 8.208-2.808 7.181-2.449 6.154-2.091 5.084-1.763 3.971-1.466 2.61-1.02 1.286-.532 0 0" fill="#707e99"/>
<path transform="matrix(1,0,0,-1,400.6345,602.7307)" d="M0 0C-.14-9.228-3.177-13.84-9.109-13.84-11.792-13.84-14.006-12.558-15.748-9.992-17.489-7.427-18.36-4.307-18.36-.635-18.36 3.131-17.489 6.26-15.748 8.756-14.006 11.251-11.746 12.499-8.968 12.499H0ZM152.32 8.544C145.61 8.544 140.303 6.636 136.401 2.821 135.479 1.919 135.429 .439 136.338-.475 136.687-.827 137.005-1.148 137.293-1.439 138.218-2.375 139.719-2.292 140.571-1.288 143.375 2.019 147.314 3.672 152.391 3.672 157.945 3.672 162.229 2.036 165.243-1.236 168.255-4.508 169.763-9.134 169.763-15.112 169.763-15.583 169.715-16.43 169.621-17.654H128.522 117.153C118.095-15.677 118.566-13.182 118.566-10.168V7.206C118.566 8.451 117.556 9.462 116.309 9.462H115.879C114.633 9.462 113.622 8.451 113.622 7.206V-7.98C113.622-11.699 113.117-14.242 112.105-15.607 111.092-16.972 109.245-17.654 106.561-17.654H98.087C98.981-15.818 99.429-13.323 99.429-10.168V7.206C99.429 8.451 98.418 9.462 97.172 9.462H96.742C95.496 9.462 94.485 8.451 94.485 7.206V-7.98C94.485-11.699 94.049-14.242 93.18-15.607 92.308-16.972 90.743-17.654 88.484-17.654H79.233V-17.371C80.033-15.395 80.433-12.994 80.433-10.168V7.206C80.433 8.451 79.422 9.462 78.176 9.462H77.676C76.43 9.462 75.419 8.451 75.419 7.206V-8.615C75.419-11.535 74.76-13.77 73.442-15.324 72.123-16.878 70.31-17.654 68.005-17.654H63.061 53.881C54.775-15.818 55.222-13.323 55.222-10.168V7.206C55.222 8.451 54.212 9.462 52.966 9.462H52.536C51.289 9.462 50.279 8.451 50.279 7.206V-7.98C50.279-11.227 49.926-13.512 49.22-14.829 48.232-16.76 46.23-17.724 43.217-17.724L30.719-17.654C31.613-15.818 32.061-13.323 32.061-10.168V7.206C32.061 8.451 31.05 9.462 29.804 9.462H29.374C28.128 9.462 27.117 8.451 27.117 7.206V-7.98C27.117-11.227 26.764-13.512 26.058-14.829 25.07-16.76 23.068-17.724 20.055-17.724H15.536 14.124C11.252-17.724 9.027-16.736 7.45-14.759 5.873-12.782 5.085-10.028 5.085-6.497V16.171H-9.473C-13.348 16.171-17.127 14.534-19.528 11.491-22.044 8.301-23.303 4.164-23.303-.918-23.303-5.626-22.102-9.604-19.701-12.852-17.301-16.101-14.312-17.724-10.733-17.724-5.649-17.724-2.047-15.913 .072-12.287 2.143-19.161 6.638-22.597 13.559-22.597H15.536 38.698 39.899 61.437 63.061 128.522 175.624V-15.465C175.624-8.168 173.505-2.342 169.267 2.012 165.031 6.366 159.382 8.544 152.32 8.544" fill="#707e99"/>
<path transform="matrix(1,0,0,-1,605.493,620.3844)" d="M0 0-8.192-.07C-10.97-.07-13.159 1.271-14.758 3.954-16.077 6.119-16.735 8.638-16.735 11.509-16.735 14.194-15.984 16.641-14.476 18.854-12.782 21.349-10.593 22.597-7.908 22.597-5.321 22.597-3.319 21.772-1.906 20.125-.636 18.714 0 16.971 0 14.9ZM50.283 40.746H49.853C48.607 40.746 47.596 39.735 47.596 38.489V9.674C47.596 6.427 47.242 4.166 46.537 2.895 45.549 .918 43.546-.07 40.534-.07L28.036 0C28.93 1.835 29.378 4.33 29.378 7.486V38.489C29.378 39.735 28.367 40.746 27.121 40.746H26.691C25.445 40.746 24.434 39.735 24.434 38.489V9.674C24.434 6.427 24.081 4.142 23.375 2.824 22.387 .894 20.385-.07 17.372-.07H14.264 12.852 5.085V13.063C5.085 17.629 3.966 21.125 1.731 23.55-.506 25.974-3.626 27.187-7.627 27.187-11.628 27.187-15.018 25.634-17.795 22.526-20.479 19.42-21.82 15.582-21.82 11.016-21.82 6.413-20.556 2.609-18.027-.399-15.53-3.371-11.729-4.944-7.848-4.944H-.564C-1.441-8.211-3.157-10.321-5.724-11.24-6.505-11.52-7.254-11.669-7.892-11.747-9.003-11.882-9.815-12.858-9.815-13.976-9.815-15.388-8.521-16.455-7.13-16.212-.613-15.071 3.27-11.315 4.519-4.944H12.852 14.264 36.014 37.216 42.159C49.079-4.944 52.54-.801 52.54 7.486V38.489C52.54 39.735 51.529 40.746 50.283 40.746" fill="#707e99"/>
<path transform="matrix(1,0,0,-1,670.1817,579.6388)" d="M0 0H-.43C-1.676 0-2.687-1.011-2.687-2.256V-43.432C-2.687-44.679-1.676-45.689-.43-45.689H0C1.246-45.689 2.257-44.679 2.257-43.432V-2.256C2.257-1.011 1.246 0 0 0" fill="#707e99"/>
<path transform="matrix(1,0,0,-1,728.7211,579.6388)" d="M0 0H-.43C-1.676 0-2.687-1.011-2.687-2.256V-32.131C-2.687-37.639-3.792-42.253-6.005-45.971-8.595-50.397-12.479-52.61-17.657-52.61-22.742-52.61-26.625-50.397-29.308-45.971-31.568-42.159-32.698-37.545-32.698-32.131V-28.596C-32.698-27.35-33.709-26.339-34.955-26.339H-35.385C-36.631-26.339-37.642-27.35-37.642-28.596V-33.12C-37.642-40.276-35.735-46.113-31.921-50.632-28.015-55.152-23.259-57.411-17.657-57.411-12.055-57.411-7.372-55.175-3.604-50.703 .304-46.089 2.257-40.228 2.257-33.12V-2.256C2.257-1.011 1.246 0 0 0" fill="#707e99"/>
<path transform="matrix(1,0,0,-1,760.2137,620.3844)" d="M0 0-8.192-.07C-10.97-.07-13.159 1.271-14.758 3.954-16.077 6.119-16.735 8.638-16.735 11.509-16.735 14.194-15.983 16.641-14.476 18.854-12.781 21.349-10.592 22.597-7.908 22.597-5.321 22.597-3.319 21.772-1.906 20.125-.636 18.714 0 16.971 0 14.9ZM128.101 40.746H127.672C126.425 40.746 125.415 39.735 125.415 38.489V9.674C125.415 6.427 125.062 4.166 124.355 2.895 123.368 .918 121.365-.07 118.353-.07L105.855 0C106.749 1.835 107.196 4.33 107.196 7.486V38.489C107.196 39.735 106.186 40.746 104.939 40.746H104.51C103.263 40.746 102.253 39.735 102.253 38.489V9.674C102.253 6.427 101.9 4.142 101.194 2.824 100.206 .894 98.204-.07 95.191-.07H92.226V0H84.458V2.188C84.458 9.485 82.339 15.311 78.102 19.666 73.866 24.02 68.217 26.198 61.155 26.198 53.481 26.198 47.643 23.702 43.642 18.714 46.043 16.312 47.478 14.852 47.95 14.335 50.774 18.995 55.199 21.326 61.225 21.326 66.78 21.326 71.064 19.69 74.078 16.418 77.089 13.146 78.597 8.52 78.597 2.542 78.597 2.07 78.55 1.224 78.456 0H37.215 35.521 28.035C28.929 1.835 29.377 4.33 29.377 7.486V38.489C29.377 39.735 28.366 40.746 27.12 40.746H26.69C25.443 40.746 24.433 39.735 24.433 38.489V9.674C24.433 6.427 24.08 4.142 23.374 2.824 22.386 .894 20.384-.07 17.371-.07H14.264 12.852 5.085V13.063C5.085 17.629 3.966 21.125 1.731 23.55-.506 25.974-3.625 27.187-7.626 27.187-11.628 27.187-15.018 25.634-17.795 22.526-20.479 19.42-21.82 15.582-21.82 11.016-21.82 6.413-20.556 2.609-18.027-.399-15.53-3.371-11.729-4.944-7.847-4.944H-.564C-1.441-8.211-3.157-10.321-5.724-11.24-6.505-11.52-7.254-11.669-7.892-11.747-9.003-11.882-9.815-12.858-9.815-13.976-9.815-15.388-8.52-16.455-7.13-16.212-.613-15.071 3.271-11.315 4.519-4.944H12.852 14.264 35.521 37.215 90.672 92.226 113.833 115.034 119.978C126.898-4.944 130.358-.801 130.358 7.486V38.489C130.358 39.735 129.348 40.746 128.101 40.746" fill="#707e99"/>
<path transform="matrix(1,0,0,-1,554.1689,630.32388)" d="M0 0C-.781 0-1.448-.277-2.001-.83-2.555-1.384-2.832-2.076-2.832-2.907-2.832-3.662-2.555-4.322-2.001-4.889-1.448-5.455-.781-5.738 0-5.738 .805-5.738 1.497-5.455 2.076-4.889 2.655-4.322 2.945-3.662 2.945-2.907 2.945-2.076 2.655-1.384 2.076-.83 1.497-.277 .805 0 0 0" fill="#707e99"/>
<path transform="matrix(1,0,0,-1,430.2023,630.3939)" d="M0 0C-.781 0-1.448-.277-2.001-.83-2.555-1.384-2.832-2.076-2.832-2.907-2.832-3.663-2.555-4.322-2.001-4.889-1.448-5.455-.781-5.738 0-5.738 .805-5.738 1.497-5.455 2.076-4.889 2.655-4.322 2.945-3.663 2.945-2.907 2.945-2.076 2.655-1.384 2.076-.83 1.497-.277 .805 0 0 0" fill="#707e99"/>
<path transform="matrix(1,0,0,-1,420.9512,630.3939)" d="M0 0C-.781 0-1.448-.277-2.001-.83-2.555-1.384-2.832-2.076-2.832-2.907-2.832-3.663-2.555-4.322-2.001-4.889-1.448-5.455-.781-5.738 0-5.738 .805-5.738 1.497-5.455 2.076-4.889 2.655-4.322 2.945-3.663 2.945-2.907 2.945-2.076 2.655-1.384 2.076-.83 1.497-.277 .805 0 0 0" fill="#707e99"/>
<path transform="matrix(1,0,0,-1,399.9084,581.14028)" d="M0 0C.805 0 1.497 .283 2.076 .849 2.655 1.415 2.944 2.076 2.944 2.831 2.944 3.662 2.655 4.353 2.076 4.907 1.497 5.46 .805 5.737 0 5.737-.781 5.737-1.448 5.46-2.002 4.907-2.555 4.353-2.832 3.662-2.832 2.831-2.832 2.076-2.555 1.415-2.002 .849-1.448 .283-.781 0 0 0" fill="#707e99"/>
<path transform="matrix(1,0,0,-1,390.6574,581.14028)" d="M0 0C.805 0 1.497 .283 2.076 .849 2.655 1.415 2.944 2.076 2.944 2.831 2.944 3.662 2.655 4.353 2.076 4.907 1.497 5.46 .805 5.737 0 5.737-.781 5.737-1.448 5.46-2.001 4.907-2.555 4.353-2.832 3.662-2.832 2.831-2.832 2.076-2.555 1.415-2.001 .849-1.448 .283-.781 0 0 0" fill="#707e99"/>
<path transform="matrix(1,0,0,-1,453.223,587.9191)" d="M0 0C.805 0 1.497 .283 2.076 .849 2.655 1.416 2.944 2.076 2.944 2.831 2.944 3.662 2.655 4.354 2.076 4.908 1.497 5.461 .805 5.738 0 5.738-.781 5.738-1.448 5.461-2.001 4.908-2.555 4.354-2.832 3.662-2.832 2.831-2.832 2.076-2.555 1.416-2.001 .849-1.448 .283-.781 0 0 0" fill="#707e99"/>
<path transform="matrix(1,0,0,-1,443.9727,587.9191)" d="M0 0C.805 0 1.497 .283 2.076 .849 2.655 1.416 2.944 2.076 2.944 2.831 2.944 3.662 2.655 4.354 2.076 4.908 1.497 5.461 .805 5.738 0 5.738-.781 5.738-1.448 5.461-2.001 4.908-2.555 4.354-2.832 3.662-2.832 2.831-2.832 2.076-2.555 1.416-2.001 .849-1.448 .283-.781 0 0 0" fill="#707e99"/>
<path transform="matrix(1,0,0,-1,75.4247,278.13563)" d="M0 0V90.572H90.572V150.953H0V271.716L-60.381 211.334V0C-60.381-83.356 7.216-150.953 90.572-150.953V-90.572C40.637-90.572 0-49.935 0 0" fill="#253150"/>
<path transform="matrix(1,0,0,-1,1584.9567,187.56372)" d="M0 0V60.381H-90.572V181.144L-150.953 120.763V-90.572C-150.953-173.928-83.356-241.525 0-241.525V-181.144C-49.936-181.144-90.572-140.507-90.572-90.572V0Z" fill="#253150"/>
<path transform="matrix(1,0,0,-1,618.8561,127.182437)" d="M0 0C-83.356 0-150.953-67.597-150.953-150.953V-301.906H-90.572V-150.953C-90.572-101.018-49.935-60.381 0-60.381Z" fill="#253150"/>
<path transform="matrix(1,0,0,-1,1267.955,368.70753)" d="M0 0C-41.618 0-75.477 33.858-75.477 75.477-75.477 117.095-41.618 150.953 0 150.953 41.618 150.953 75.477 117.095 75.477 75.477 75.477 33.858 41.618 0 0 0M0 211.335C-75.033 211.335-135.858 150.509-135.858 75.477-135.858 .444-75.033-60.381 0-60.381 75.032-60.381 135.858 .444 135.858 75.477 135.858 150.509 75.032 211.335 0 211.335" fill="#253150"/>
<path transform="matrix(1,0,0,-1,301.8545,157.37305)" d="M0 0C-75.033 0-135.858-60.826-135.858-135.858-135.858-210.89-75.033-271.716 0-271.716 14.949-271.716 29.318-269.266 42.771-264.806L22.105-208.025C15.11-210.172 7.689-211.335 0-211.335-41.618-211.335-75.477-177.476-75.477-135.858-75.477-94.24-41.618-60.381 0-60.381 41.618-60.381 75.477-94.24 75.477-135.858V-271.716H135.858V-135.858C135.858-60.826 75.033 0 0 0" fill="#253150"/>
<path transform="matrix(1,0,0,-1,754.7141,157.37305)" d="M0 0C-75.033 0-135.858-60.826-135.858-135.858-135.858-210.89-75.033-271.716 0-271.716 14.949-271.716 29.318-269.266 42.771-264.806L22.105-208.025C15.11-210.172 7.689-211.335 0-211.335-41.618-211.335-75.477-177.476-75.477-135.858-75.477-94.24-41.618-60.381 0-60.381 41.618-60.381 75.477-94.24 75.477-135.858V-271.716H135.858V-135.858C135.858-60.826 75.032 0 0 0" fill="#253150"/>
<path transform="matrix(1,0,0,-1,1056.6205,157.37305)" d="M0 0C-14.949 0-29.318-2.45-42.771-6.91L-22.105-63.691C-15.11-61.544-7.689-60.381 0-60.381 41.618-60.381 75.477-94.24 75.477-135.858 75.477-177.476 41.618-211.335 0-211.335-41.618-211.335-75.477-177.476-75.477-135.858V150.953L-135.858 90.572V-135.858C-135.858-210.89-75.033-271.716 0-271.716 75.032-271.716 135.858-210.89 135.858-135.858 135.858-60.826 75.032 0 0 0" fill="#253150"/>
<path transform="matrix(1,0,0,-1,1298.1455,160.72382)" d="M0 0C-60.502-13.737-105.667-67.868-105.667-132.507-105.667-164.841-116.989-194.549-135.858-217.886-154.727-194.549-166.048-164.841-166.048-132.507-166.048-100.173-154.727-70.465-135.858-47.128-110.951-16.334-72.88 3.351-30.191 3.351-19.805 3.351-9.721 2.173 0 0" fill="#89182d"/>
<path transform="matrix(1,0,0,-1,1192.4783,293.23094)" d="M0 0C0-32.334-11.321-62.042-30.191-85.379-55.098-116.174-93.168-135.858-135.858-135.858-146.243-135.858-156.327-134.68-166.048-132.507-105.547-118.77-60.381-64.638-60.381 0-60.381 32.334-49.06 62.042-30.191 85.379-11.321 62.042 0 32.334 0 0" fill="#f36f21"/>
<path transform="matrix(1,0,0,-1,1132.097,293.23094)" d="M0 0C0-32.343 11.321-62.029 30.191-85.359 49.06-62.029 60.381-32.343 60.381 0 60.381 32.343 49.06 62.029 30.191 85.359 11.321 62.029 0 32.343 0 0" fill="#f04923"/>
<path transform="matrix(1,0,0,-1,1355.0433,484.825)" d="M0 0-25.546 25.546V-140.503H0Z" fill="#253150"/>
<path transform="matrix(1,0,0,-1,1517.8986,491.21183)" d="M0 0C8.818 0 15.966 7.148 15.966 15.966 15.966 24.784 8.818 31.932 0 31.932-8.818 31.932-15.966 24.784-15.966 15.966-15.966 7.148-8.818 0 0 0" fill="#253150"/>
<path transform="matrix(1,0,0,-1,1249.6666,644.48757)" d="M0 0C-8.818 0-15.967-7.148-15.967-15.966-15.967-24.784-8.818-31.932 0-31.932 8.818-31.932 15.966-24.784 15.966-15.966 15.966-7.148 8.818 0 0 0" fill="#253150"/>
<path transform="matrix(1,0,0,-1,1476.3864,491.21183)" d="M0 0C8.818 0 15.966 7.148 15.966 15.966 15.966 24.784 8.818 31.932 0 31.932-8.818 31.932-15.966 24.784-15.966 15.966-15.966 7.148-8.818 0 0 0" fill="#253150"/>
<path transform="matrix(1,0,0,-1,1559.4107,523.1441)" d="M0 0V-51.092C0-65.178-11.46-76.638-25.546-76.638H-140.503V0H-166.048V-89.411C-166.048-110.537-183.241-127.729-204.367-127.729V-153.276C-173.476-153.276-147.705-131.331-141.786-102.184H-25.546C2.671-102.184 25.546-79.309 25.546-51.092V0Z" fill="#253150"/>
<path transform="matrix(1,0,0,-1,964.9636,599.7824)" d="M0 0C4.357 7.521 6.891 16.229 6.891 25.546V51.093H134.62C148.707 51.093 160.167 39.633 160.167 25.546 160.167 11.46 148.707 0 134.62 0ZM300.669 25.546C300.669 11.46 289.209 0 275.123 0H178.821C183.178 7.521 185.712 16.229 185.712 25.546 185.712 53.764 162.838 76.638 134.62 76.638H6.891V140.503L-18.655 114.957V76.638 25.546C-18.655 11.46-30.115 0-44.201 0V-25.546H134.62 275.123C303.34-25.546 326.215-2.671 326.215 25.546V76.638H300.669Z" fill="#253150"/>
</g>
</g>
</svg>
