<?xml version="1.0" encoding="UTF-8" standalone="no"?>
<svg
   xmlns:dc="http://purl.org/dc/elements/1.1/"
   xmlns:cc="http://creativecommons.org/ns#"
   xmlns:rdf="http://www.w3.org/1999/02/22-rdf-syntax-ns#"
   xmlns:svg="http://www.w3.org/2000/svg"
   xmlns="http://www.w3.org/2000/svg"
   xmlns:sodipodi="http://sodipodi.sourceforge.net/DTD/sodipodi-0.dtd"
   xmlns:inkscape="http://www.inkscape.org/namespaces/inkscape"
   width="800pt"
   height="533pt"
   viewBox="0 0 800 533"
   version="1.1"
   id="svg2996"
   inkscape:version="0.48.4 r9939"
   sodipodi:docname="2ink2.svg">
  <metadata
     id="metadata3005">
    <rdf:RDF>
      <cc:Work
         rdf:about="">
        <dc:format>image/svg+xml</dc:format>
        <dc:type
           rdf:resource="http://purl.org/dc/dcmitype/StillImage" />
        <dc:title></dc:title>
      </cc:Work>
    </rdf:RDF>
  </metadata>
  <defs
     id="defs3003" />
  <sodipodi:namedview
     pagecolor="#ffffff"
     bordercolor="#666666"
     borderopacity="1"
     objecttolerance="10"
     gridtolerance="10"
     guidetolerance="10"
     inkscape:pageopacity="0"
     inkscape:pageshadow="2"
     inkscape:window-width="1366"
     inkscape:window-height="706"
     id="namedview3001"
     showgrid="false"
     inkscape:zoom="0.5"
     inkscape:cx="500"
     inkscape:cy="398.752"
     inkscape:window-x="-8"
     inkscape:window-y="-8"
     inkscape:window-maximized="1"
     inkscape:current-layer="svg2996" />
  <g
     id="#002768ff">
    <path
       fill="#002768"
       opacity="1.00"
       d=" M 0.00 0.00 L 800.00 0.00 L 800.00 533.00 L 0.00 533.00 L 0.00 0.00 Z"
       id="path2999" />
  </g>
  <g
     transform="translate(-0.215,2.927071)"
     id="#bf9200fe">
    <path
       style="fill:#bf9200"
       inkscape:connector-curvature="0"
       d="m 436,67.5 c 2.57,-0.49 5.2,-0.55 7.81,-0.3 -0.24,1.47 0.48,3.75 -1.6,4.04 -2.81,1.74 -6.59,-0.36 -6.21,-3.74 z"
       id="path3190" />
    <path
       style="fill:#bf9200"
       inkscape:connector-curvature="0"
       d="m 256.09,101.99 c 2.71,-1.85 5.86,-2.16 8.52,-0.06 -1.23,1.41 -2.24,3.85 -4.53,3.31 -1.92,0.07 -2.78,-2.12 -3.99,-3.25 z"
       id="path3192" />
    <path
       style="fill:#bf9200"
       inkscape:connector-curvature="0"
       d="m 511.49,123.37 c -2.89,-1.6 0.27,-4.75 2.56,-4.73 2.34,-0.28 3.67,1.91 5.06,3.39 -2.15,1.65 -5.11,3.5 -7.62,1.34 z"
       id="path3194" />
    <path
       style="fill:#bf9200"
       inkscape:connector-curvature="0"
       d="m 411.92,213.85 c 4.7,-4.21 8.9,-9.16 14.69,-11.95 -0.88,3.8 -3.47,6.89 -6.6,9.1 -3.35,2.33 -6.39,5.36 -10.45,6.39 0.62,-1.28 1.19,-2.65 2.36,-3.54 z"
       id="path3196" />
    <path
       style="fill:#bf9200"
       inkscape:connector-curvature="0"
       d="m 338.56,228.24 c 5.76,0.9 8.84,6.51 11.05,11.32 -5.52,-1.23 -9.78,-5.89 -11.05,-11.32 z"
       id="path3198" />
    <path
       style="fill:#bf9200"
       inkscape:connector-curvature="0"
       d="m 340.49,244.48 c 5.7,0.13 10.91,3.43 14,8.14 -5.72,0.08 -12.06,-2.23 -14,-8.14 z"
       id="path3200" />
    <path
       style="fill:#bf9200"
       inkscape:connector-curvature="0"
       d="m 413.74,256.49 c 3.9,-4 9.26,-6.02 14,-8.84 -0.01,1.37 -0.01,2.74 -0.03,4.12 -3.87,3.32 -9,4.39 -13.97,4.72 z"
       id="path3202" />
    <path
       style="fill:#bf9200"
       inkscape:connector-curvature="0"
       d="m 413.1,261.96 c 4.06,-3.1 9.04,-4.64 13.81,-6.3 0.4,1.15 0.8,2.3 1.19,3.46 -4.7,2.1 -9.83,3.32 -15,2.84 z"
       id="path3204" />
    <path
       style="fill:#bf9200"
       inkscape:connector-curvature="0"
       d="m 350.68,266.94 c 4.89,-1.61 10.62,-0.86 14.79,2.2 -4.99,0.56 -10.56,1.1 -14.79,-2.2 z"
       id="path3206" />
    <path
       style="fill:#bf9200"
       inkscape:connector-curvature="0"
       d="m 410.7,269.99 c 4.62,-1.02 11.35,-3.03 14.41,1.92 -2.4,0.74 -4.9,1.08 -7.34,1.62 l 0.03,0.69 c 0.95,1.16 2.39,1.77 3.62,2.6 -4.68,2.26 -9.74,-0.6 -13.77,-2.95 2.72,-0.73 5.5,0.48 8.19,-0.12 -1.46,-1.49 -3.85,-1.94 -5.14,-3.76 z"
       id="path3208" />
    <path
       style="fill:#bf9200"
       inkscape:connector-curvature="0"
       d="m 403.55,278.22 c 3.02,-0.72 7.17,-1.7 9.05,1.65 -3.04,0.09 -7.15,1.59 -9.05,-1.65 z"
       id="path3210" />
    <path
       style="fill:#bf9200"
       inkscape:connector-curvature="0"
       d="m 395.34,395.22 c 1.87,-3.11 5.2,-4.77 8.53,-5.89 -0.02,0.9 -0.05,2.7 -0.07,3.61 -2.7,1.15 -5.53,2.03 -8.46,2.28 z"
       id="path3212" />
  </g>
  <g
     transform="translate(-0.215,2.927071)"
     id="#c09300ff">
    <path
       style="fill:#c09300"
       inkscape:connector-curvature="0"
       d="m 446.31,68.8 c 2.11,-1.22 4.2,0.64 6.14,1.35 -0.81,1.15 -1.59,2.33 -2.55,3.36 -2.08,0.53 -3.97,-0.7 -5.83,-1.38 0.66,-1.16 1.41,-2.27 2.24,-3.33 z"
       id="path3215" />
    <path
       style="fill:#c09300"
       inkscape:connector-curvature="0"
       d="m 349.24,72.52 c 2.91,-0.31 5.83,-0.45 8.76,-0.4 1.79,5.1 3.22,10.36 4.05,15.72 -2.46,0.67 -4.96,1.2 -7.45,1.7 -2.11,-5.57 -3.58,-11.35 -5.36,-17.02 z"
       id="path3217" />
    <path
       style="fill:#c09300"
       inkscape:connector-curvature="0"
       d="m 338.9,74.32 c 2.75,-0.69 5.58,-1.04 8.42,-1.01 1.82,5.23 3.36,10.56 4.69,15.93 -10.74,2.45 -21.65,4.25 -32.13,7.71 -0.38,5.78 -5.16,9.67 -10.35,11.25 0.36,-2.37 1.84,-4.66 1.51,-7.07 -2,-4.7 -6.26,-7.97 -8.44,-12.59 2.68,-1.15 5.42,-2.15 8.19,-3.06 1.69,2.09 3.34,4.23 5.16,6.23 2.2,-0.61 4.36,-1.34 6.47,-2.21 -2.4,-2.04 -5.03,-3.79 -7.56,-5.65 5.12,-2.65 10.83,-4.04 16.55,-4.58 0.06,2.9 0.06,5.8 0.14,8.69 3.5,-0.5 6.92,-1.42 10.24,-2.64 -0.82,-3.71 -2.06,-7.3 -2.89,-11 z"
       id="path3219" />
    <path
       style="fill:#c09300"
       inkscape:connector-curvature="0"
       d="m 372.02,73.66 c 12.91,-0.79 25.92,-1.67 38.8,-0.06 0.25,2.18 0.35,4.37 0.43,6.56 5.52,-5.81 13.77,-8.9 21.68,-6.58 -1.97,4.7 -3.25,10.14 -6.96,13.79 -2.55,0.11 -5.08,-0.33 -7.61,-0.6 -14.2,-1.53 -28.57,-1.58 -42.76,0.06 -3.58,-0.18 -4.34,4.23 -7.25,5.45 -2.8,1.07 -5.87,0.53 -8.74,0.12 1.83,-1.61 3.77,-3.09 5.7,-4.59 -0.79,-4.11 -2.14,-8.06 -3.16,-12.11 2.53,-0.37 5.47,-2.38 7.9,-0.82 0.96,1.85 1.63,3.84 2.64,5.67 -0.1,-2.31 -0.4,-4.6 -0.67,-6.89 m 8.3,3.75 c -0.03,0.7 -0.09,2.11 -0.12,2.81 7.17,-0.07 14.32,-0.7 21.49,-0.26 -0.06,-0.61 -0.2,-1.84 -0.26,-2.45 -7.01,-0.79 -14.11,-1.01 -21.11,-0.1 m 39.39,1.54 c 1.71,1.17 3.67,0.88 5.52,0.2 -1.6,-2.15 -3.62,-1.53 -5.52,-0.2 z"
       id="path3221" />
    <path
       style="fill:#c09300"
       inkscape:connector-curvature="0"
       d="m 435.25,80.23 c 4.9,-5.45 12.94,-7.32 19.96,-5.78 -1.93,2.99 -4.19,5.78 -5.52,9.11 4.15,-0.49 5.65,-4.66 7.96,-7.51 2.36,0.78 4.68,1.67 6.97,2.66 -2.75,4.2 -5.5,8.44 -8.64,12.37 -1.49,2.32 -4.33,0.95 -6.41,0.5 -6.72,-1.93 -13.69,-2.72 -20.51,-4.18 1.99,-2.45 4.06,-4.83 6.19,-7.17 m 6.96,-0.27 c -1.15,1.49 1.49,3 2.47,1.59 1.18,-1.52 -1.48,-2.95 -2.47,-1.59 z"
       id="path3223" />
    <path
       style="fill:#c09300"
       inkscape:connector-curvature="0"
       d="m 456.83,92.85 c 4.1,-4.07 6.35,-9.96 11.14,-13.29 2.25,0.6 4.4,1.56 6.55,2.48 -3.56,4.27 -6.79,8.87 -10.74,12.79 -3.57,3.51 -8.94,3.01 -13.48,2.4 1.82,-1.97 4.34,-2.93 6.53,-4.38 z"
       id="path3225" />
    <path
       style="fill:#c09300"
       inkscape:connector-curvature="0"
       d="m 477.97,84.72 c 4.13,-0.11 8.26,-0.06 12.37,-0.59 -2.15,3.43 -5.17,6.18 -7.37,9.56 4.05,-0.98 8.15,-1.94 12.32,-1.03 -1.69,-1.65 -3.44,-3.24 -5.02,-4.98 4.51,-0.59 9.19,1.5 12.28,4.74 2.28,2.24 0.89,5.52 0.44,8.19 4.68,0.14 10.67,0.44 13.01,5.28 1.39,4.7 6.32,6.96 10.58,8.53 -0.53,-3.82 -3.47,-6.41 -5.44,-9.49 4.28,1.13 9.1,2.97 11.17,7.21 0.62,2.56 -1.17,4.75 -2.09,6.99 -1.06,1.98 -0.68,4.32 -0.93,6.47 -5.85,-2.46 -10.34,-7.18 -15.95,-10.09 -1.73,-1.39 -3.9,-0.3 -5.83,-0.14 -4.45,0.97 -9.7,-0.77 -11.97,-4.86 -0.44,-1.65 -0.58,-3.35 -0.84,-5.02 -4.27,-1.9 -8.33,-4.29 -12.76,-5.83 -3.18,0.41 -5.74,2.91 -8.95,3.4 -4.04,0.48 -8.43,-0.41 -11.5,-3.21 2.71,-0.38 5.48,-0.39 8.16,-1.05 1.4,-2.46 -2.61,-3.1 -3.84,-4.62 3.61,-3.6 6.63,-8.78 12.16,-9.46 m -2.72,5.03 c 0.01,0.52 0.04,1.55 0.05,2.07 1.21,0.02 2.43,0.05 3.66,0.07 0.05,-0.53 0.15,-1.61 0.2,-2.15 -1.31,0 -2.61,0.01 -3.91,0.01 m 28.8,16.95 c -0.23,0.64 -0.67,1.93 -0.89,2.57 1.59,0.13 3.35,0.76 4.79,-0.27 0.25,-2.26 -2.49,-1.72 -3.9,-2.3 z"
       id="path3227" />
    <path
       style="fill:#c09300"
       inkscape:connector-curvature="0"
       d="m 291.67,93.18 c 2.42,-1.16 4.88,-2.22 7.42,-3.12 3.48,3.18 6.17,7.09 8.71,11.04 -14.74,6.9 -29.64,13.58 -43.39,22.35 0.22,-4.19 -1.96,-7.72 -3.03,-11.59 -1.06,-4.74 3.38,-7.79 6.44,-10.52 3.04,2.45 6.03,4.97 9.14,7.34 2.06,-1.08 4.09,-2.19 6.09,-3.36 -1.54,-2.21 -5.25,-3.82 -4.8,-6.86 2.01,-1.09 4.12,-2.32 6.47,-2.36 2.27,1.57 3.92,3.92 6.39,5.23 1.8,-0.39 3.33,-1.48 4.92,-2.36 -1.46,-1.93 -2.96,-3.82 -4.36,-5.79 m -23.64,17.08 c -1.23,1.55 1.64,2.75 2.62,1.54 1.19,-1.55 -1.65,-2.78 -2.62,-1.54 z"
       id="path3229" />
    <path
       style="fill:#c09300"
       inkscape:connector-curvature="0"
       d="m 444.5,92.41 c 2,-0.88 3.79,0.72 5.47,1.57 -1.26,1.92 -3.31,2.78 -5.45,3.29 -0.58,-0.67 -1.75,-2.01 -2.34,-2.68 0.74,-0.77 1.51,-1.49 2.32,-2.18 z"
       id="path3231" />
    <path
       style="fill:#c09300"
       inkscape:connector-curvature="0"
       d="m 249.87,107.01 c 1.55,-1.05 2.99,-2.95 5.11,-2.39 1.84,0.04 2.52,2.04 3.52,3.25 -1.44,0.69 -2.84,1.5 -4.38,1.95 -1.72,-0.39 -2.93,-1.76 -4.25,-2.81 z"
       id="path3233" />
    <path
       style="fill:#c09300"
       inkscape:connector-curvature="0"
       d="m 299.51,108.94 c -0.62,-2.7 2.76,-2.95 4.41,-4.12 1.28,1.1 2.56,2.22 3.82,3.37 -2.38,2.1 -5.59,3.03 -8.23,0.75 z"
       id="path3235" />
    <path
       style="fill:#c09300"
       inkscape:connector-curvature="0"
       d="m 467.17,116.15 c 1.13,-2.36 2.94,-4.26 4.74,-6.12 3.9,0.27 6.88,3.24 7.66,6.97 -0.09,3.04 -1.35,5.97 -3.18,8.37 -6.06,7.57 -12.73,14.62 -19.11,21.91 -9.97,10.7 -19.42,21.89 -30.15,31.86 -6.8,6.29 -13.12,13.22 -17.82,21.25 -2.78,4.85 -3.65,10.65 -2.68,16.13 2.05,8.72 5.09,17.36 5.03,26.42 0.5,7.33 0.6,15.1 -2.99,21.76 -4.48,9.65 -16.9,14.06 -26.64,10.15 -8.63,-3.49 -16.72,-9.27 -21.33,-17.52 -4.66,-8.18 -8.3,-17.16 -9.25,-26.59 -0.35,-7.42 0.04,-14.89 -0.97,-22.26 -8.93,-9.39 -18.08,-18.62 -26.47,-28.51 -4.99,-6.46 -11.02,-12.37 -13.92,-20.17 -3.17,-7.83 -7.5,-15.84 -6.85,-24.53 1.12,-2.44 3.79,-3.69 5.82,-5.27 1.89,1.75 4.3,3.4 4.69,6.16 2.3,9.97 3.65,20.21 7.41,29.78 1.44,3.57 3.61,6.84 6.38,9.52 8.87,8.81 17.28,18.06 26.08,26.93 1.71,1.93 3.79,3.61 5.03,5.9 0.71,11.7 -1.11,23.69 1.98,35.16 2.3,6.42 4.27,13.62 9.99,17.93 3.43,2.48 7.35,4.54 11.55,5.31 5.65,0.11 12,1.08 16.73,-2.8 6.94,-5.11 7.23,-14.79 6.51,-22.61 -2.26,-11.03 -6.26,-21.93 -5.79,-33.34 0.03,-4.02 1.53,-8.05 4.3,-10.99 12.96,-14.69 26.37,-28.97 39.51,-43.49 5.32,-6.42 11.32,-12.48 14.96,-20.08 2.89,-5.76 5.83,-11.49 8.78,-17.23 z"
       id="path3237" />
    <path
       style="fill:#c09300"
       inkscape:connector-curvature="0"
       d="m 282.65,116.06 c 1.67,-2.12 4.71,-3.94 7.19,-1.89 0.22,0.75 0.66,2.24 0.88,2.99 -2.83,1.5 -5.84,1.34 -8.07,-1.1 z"
       id="path3239" />
    <path
       style="fill:#c09300"
       inkscape:connector-curvature="0"
       d="m 235.42,133.43 c 7.45,-6.45 15.82,-11.89 24.78,-16.02 -3.28,11.77 -5.34,23.94 -10.44,35.12 3.44,-3.73 4.79,-8.72 6.76,-13.28 2.7,-0.01 5.4,0 8.1,0.04 -0.94,7.69 -6.97,13.18 -13.23,16.99 -4.03,2.14 -8.67,2.57 -12.92,4.09 -0.79,0.94 -1.5,1.94 -2.13,3 5.69,-1.35 11.3,-3.08 16.7,-5.31 1.99,-0.93 4.22,-0.63 6.34,-0.59 0.62,2.06 1.39,4.81 -0.89,6.19 -2.84,1.62 -5.71,-0.97 -8.52,-1.3 -5.45,1.14 -10.52,3.56 -15.51,5.96 0.29,5.96 -2.86,11.16 -4.36,16.73 2.91,-3.53 4.24,-7.94 5.76,-12.17 1.43,-4.39 7.04,-2.28 10.45,-2.68 -1.44,7.86 -7.15,14.3 -14.01,18.06 -5.41,2.9 -11.22,5.04 -17.22,6.3 -0.46,1.77 -0.88,3.56 -1.25,5.36 5.63,-3.06 11.2,-6.24 16.83,-9.3 1.72,-1.11 3.67,0.09 4.67,1.57 1.41,2.47 -2,3.52 -3.34,5.01 -1.63,-0.63 -3.26,-1.27 -4.9,-1.86 -4.24,2.25 -8.66,4.45 -11.97,8.02 -0.95,5.31 -1.61,10.73 -1.58,16.14 2.49,-4.17 2.08,-9.17 3.29,-13.7 2.15,-1.91 5.17,-1.38 7.8,-1.48 -0.02,3.73 -0.74,7.46 -2.54,10.76 -2.94,6.47 -9.49,9.94 -14.41,14.68 -1.46,1.42 -0.74,3.68 -0.99,5.49 5.49,-4.36 10.06,-9.73 14.5,-15.12 1.28,-1.88 4.67,-2.59 6.07,-0.5 0.88,1.37 0.9,3.09 1.3,4.64 -2.68,0.86 -5.5,0.99 -8.29,0.99 -3.26,3.89 -7.21,7.32 -9.46,11.95 -1.05,2.01 0.01,4.25 0.53,6.26 1.51,4.5 1.35,9.46 3.58,13.73 0.84,-5.16 -0.66,-10.21 -1.52,-15.24 -0.49,-3.82 4.41,-4.61 6.99,-5.87 3.4,8.02 2.29,17.63 -2.33,24.94 -2.45,3.9 -5.5,7.45 -9.12,10.31 0.52,1.65 1.09,3.28 1.74,4.9 3.88,-3.48 5.96,-8.36 9.19,-12.37 2.34,-2.79 3.43,-6.61 6.49,-8.76 2.85,-1.81 6.84,1.36 6.24,4.46 -1.38,3.32 -5.29,3.25 -8.31,3.34 -3.96,4.91 -7.43,10.23 -9.65,16.17 4.39,5.77 6.1,12.9 9.18,19.34 0.9,-6.59 -2.33,-12.58 -5.22,-18.23 2.54,-2.18 5.12,-4.32 7.72,-6.43 7.52,9.92 5.96,24.53 -1.54,33.99 -1.53,2.16 -3.59,4.01 -4.62,6.49 -0.53,2.84 2.51,4.59 3.82,6.76 3.44,-4.43 4.49,-10.07 7.1,-14.95 1.9,-3.52 1.65,-8.41 5.37,-10.74 2.23,-0.88 4.32,0.22 6.02,1.63 -0.11,1.6 -0.11,3.22 -0.4,4.8 -1.82,2.24 -5.04,2.15 -7.61,2.87 -1.57,6.17 -4.64,11.88 -5.7,18.2 5.47,5.74 9.42,12.69 14.56,18.69 -1.13,-7.12 -5.96,-12.6 -10.04,-18.21 2.02,-2.41 3.97,-4.87 5.89,-7.35 5,3.17 8.39,8.57 9.16,14.43 0.72,6.25 1.43,12.92 -1.19,18.85 -1.08,2.95 -3.07,5.63 -3.37,8.81 0.23,3.58 3.91,5.04 6.73,6.29 0.1,-9.54 -0.01,-19.08 0,-28.61 1.47,-0.7 2.87,-1.66 4.52,-1.9 3.14,0.19 5.36,4.04 4.11,6.9 -1.41,1.72 -3.62,2.44 -5.4,3.66 -0.8,6.79 0.08,13.72 1.48,20.39 8.27,2.51 14.52,8.84 22.22,12.43 -3.92,-6.22 -10.73,-9.43 -16.79,-13.12 0.25,-3.48 1.05,-6.89 2.42,-10.1 8.08,2.21 14.14,8.83 17.87,16.07 4.79,9.74 5.18,21.68 0.59,31.56 -1.16,2.22 -1.8,5.57 -4.73,6 -8.75,2.16 -17.82,3.17 -26.83,2.71 -5.18,-0.27 -9.97,-2.46 -14.51,-4.79 -4.83,-2.7 -9.67,-5.56 -13.46,-9.66 2.41,-2.12 5.46,-3.13 8.25,-4.57 2.2,-1.97 3.43,-4.77 5.45,-6.92 3.63,4.32 6.53,9.42 11.31,12.65 3.91,2.64 8.24,5.14 13.08,5.41 -3.27,-2.63 -7.18,-4.37 -10.25,-7.25 -4.05,-3.39 -7.14,-7.72 -9.7,-12.3 -0.91,-2.24 -3.41,-2.76 -5.51,-3.25 -6.04,-0.93 -12.17,-0.82 -18.26,-0.77 -0.72,1.48 -1.35,3.02 -2.2,4.43 -2.88,1.32 -7.57,-0.31 -6.53,-4.08 2.13,-2.81 5,-5.29 8.55,-5.99 7.39,-1.53 14.72,0.56 21.94,1.91 -1.29,-2.45 -2.69,-4.84 -4.05,-7.25 -9.27,-0.41 -18.53,-2.24 -27.03,-6.03 -8.12,-3.77 -13.73,-11.16 -18.47,-18.5 -1.09,-1.3 -0.96,-3.01 -1.11,-4.58 2.97,-0.27 6.01,0.13 8.94,-0.46 2.45,-1.43 4.64,-3.28 7.12,-4.67 2.12,9.18 5,20.43 14.82,24.13 -6.24,-7.08 -10.71,-16.18 -10.2,-25.8 -4.7,-3.25 -10.08,-5.27 -14.94,-8.22 -1.26,-0.74 -2.62,-1.43 -4.12,-1.32 -1.98,1.04 -3.33,3.98 -5.88,3.38 -2.63,-0.18 -2.76,-3.39 -3.49,-5.31 3.12,-1.74 6.47,-3.82 10.21,-3.31 7.37,1.43 13.73,5.64 20.08,9.41 -0.15,-1.83 -0.3,-3.64 -0.47,-5.46 -8.66,-2.97 -17.72,-5.76 -24.75,-11.92 -6.39,-5.05 -8.88,-13.11 -12.24,-20.2 0.39,-0.57 1.18,-1.7 1.57,-2.27 2.58,0.2 5.13,0.75 7.71,0.82 2.45,-0.61 4.55,-2.13 6.9,-3.03 0.48,8.63 1.24,18.81 8.75,24.44 -0.94,-3.06 -2.53,-5.87 -3.32,-8.97 -1.56,-5.77 0.08,-11.92 -1.19,-17.67 -4.05,-3.45 -8.44,-6.5 -12.83,-9.48 -2.38,-1.95 -4.85,0.7 -7.1,1.55 -0.64,-0.28 -1.93,-0.84 -2.57,-1.12 -0.06,-1.34 -0.11,-2.68 -0.15,-4.02 3.12,-2.97 7.97,-3.4 11.67,-1.24 5.99,2.55 9.68,8.3 15.43,11.23 -0.47,-1.35 -0.53,-3 -1.81,-3.89 -4,-3.39 -8.84,-5.68 -12.6,-9.38 -7.28,-6.89 -10.21,-17.41 -9.54,-27.2 2.27,0.67 4.38,1.78 6.65,2.45 2.32,-0.31 4.49,-1.25 6.69,-2.02 0.06,3.95 -0.56,7.85 -0.77,11.78 -0.3,4.49 1.38,8.85 3.77,12.57 -0.17,-5.73 -1.7,-11.47 -0.59,-17.19 0.34,-2.76 1.65,-5.46 1.19,-8.26 -2.97,-4.36 -6.47,-8.38 -10.42,-11.87 -1.65,0.57 -3.28,1.18 -4.93,1.74 -0.69,-1.42 -2.15,-2.77 -1.63,-4.48 1.81,-3.56 7.06,-2.97 9.53,-0.44 4.29,3.33 7.01,8.25 11.37,11.48 -0.33,-1.51 -0.31,-3.24 -1.57,-4.34 -4,-4.42 -8.1,-9.01 -10.25,-14.66 -1.45,-3.68 -0.87,-7.71 -1,-11.56 -0.1,-3.07 0.62,-6.12 1.97,-8.86 3.4,2.59 7.4,3.85 11.65,3.99 -3.27,5.93 -6.73,12.66 -4.99,19.63 1.61,-3.59 1.73,-7.66 3.46,-11.2 1.47,-3.06 3.22,-5.97 5.15,-8.75 -1.52,-4.16 -3.24,-8.23 -5.2,-12.2 -1.87,-0.37 -3.72,-0.79 -5.56,-1.28 0.16,-2.06 1.5,-3.6 2.9,-5 3.11,1.61 6.04,3.81 7.81,6.89 1.86,3.31 2.25,7.15 3.22,10.76 1.1,-1.47 3.48,-2.77 2.36,-4.89 -1.94,-4.75 -5.42,-8.8 -6.69,-13.87 -2.96,-8.38 -0.25,-17.34 3.58,-24.95 0.69,-0.1 2.06,-0.28 2.75,-0.37 1.13,1.3 2.15,2.72 3.5,3.8 2.22,0.9 4.65,1.06 6.98,1.57 -2.94,3.8 -6.28,7.41 -8.03,11.95 -1.05,2.92 -2.71,6.29 -0.95,9.27 1.71,-4.21 2.46,-8.98 5.58,-12.47 2.56,-3.16 6.71,-5.7 6.85,-10.19 -0.01,-3.52 -1,-7 -2.15,-10.31 -0.65,-2.96 -4.11,-2.82 -6.37,-3.84 -0.13,-0.68 -0.37,-2.03 -0.5,-2.71 2.04,-1.34 4.8,-2.7 6.98,-0.79 6.51,4.11 5.2,12.64 6.82,19.13 1.03,-1.04 2.03,-2.09 3.03,-3.16 -1.56,-3.77 -3.77,-7.34 -4.39,-11.44 -1.36,-7.92 0.4,-16.5 5.49,-22.82 2.99,2.98 5.89,6.43 10.52,6.45 -4.44,5.18 -10,10.64 -9.31,18.1 1.71,-4.71 3.46,-9.7 7.46,-13 m -1.11,21.47 c 2,-1.47 4.16,-2.88 5.61,-4.94 1.89,-2.74 2.13,-6.19 2.59,-9.38 -5.39,2.45 -8.92,8.41 -8.2,14.32 m -21.58,34.46 c 6.63,-2.84 8.26,-10.52 8.77,-16.97 -6.06,3.08 -9.83,10.22 -8.77,16.97 m -13.94,36.65 c 5.35,-3.81 6.39,-11.24 3.62,-16.92 -2.76,5.09 -6.15,11.03 -3.62,16.92 m 1.4,41.86 c 1.57,-1.32 3.59,-2.65 3.51,-4.97 0.89,-4.93 -1.13,-9.7 -4.14,-13.51 -2.91,5.85 -1.91,12.7 0.63,18.48 m 4.8,24.5 c -0.42,3.18 -0.83,6.44 -0.31,9.64 0.88,4.08 3.94,7.18 7.2,9.56 2.49,-7.04 -0.47,-15.39 -6.89,-19.2 m 17.44,46.45 c -1.33,7.53 2.98,16.7 10.94,18.33 0.05,-2.2 0.37,-4.43 -0.07,-6.6 -1.74,-5.29 -6.39,-8.8 -10.87,-11.73 m 33.73,43.9 c 2.14,8.27 10.36,13.38 18.44,14.47 -1.04,-3.72 -2.53,-7.65 -5.84,-9.92 -3.58,-2.88 -8.15,-3.96 -12.6,-4.55 z"
       id="path3241" />
    <path
       style="fill:#c09300"
       inkscape:connector-curvature="0"
       d="m 534.59,119.64 c 9.38,4.27 17.89,10.37 25.39,17.42 2.98,3.19 3.81,7.68 5.87,11.42 0.91,-7.67 -4.72,-13.66 -9.8,-18.56 2.13,-0.79 4.37,-1.26 6.56,-1.9 0.99,-1.04 1.73,-2.27 2.58,-3.42 0.7,0 2.09,-0.01 2.79,-0.01 2.17,4.24 4.63,8.53 5.17,13.35 0.34,3.96 -0.07,7.99 -1.3,11.78 -0.89,2.7 -2.37,5.24 -2.67,8.1 0.34,1.25 1.49,2.04 2.26,3.03 -0.02,-6.5 0.84,-13.8 5.9,-18.47 1.63,-1.75 4.26,-0.91 6.38,-1.15 0.29,1.32 0.57,2.64 0.85,3.96 -1.91,0.89 -3.95,1.5 -5.73,2.62 -1.95,4.53 -2.37,9.59 -3.44,14.39 4.03,3.87 8.25,7.84 10.6,13.02 0.55,2.31 0.48,4.71 0.77,7.06 1.41,-1.05 3.61,-2.06 2.8,-4.23 -1.68,-6.41 -5.79,-11.85 -9.81,-17.01 2,-0.39 4.07,-0.56 6,-1.29 2.05,-1.9 3.75,-4.21 6.26,-5.58 3.13,6.17 5.15,12.97 5.52,19.9 0.33,3.8 -1.68,7.24 -2.91,10.71 -1.45,3.98 -3.73,7.55 -6.13,11.02 0.86,1.04 1.73,2.08 2.61,3.12 2.18,-4.72 3.15,-10.13 6.61,-14.16 1.85,-2.41 5.32,-2.37 7.92,-1.38 0.47,1.22 0.86,2.46 1.19,3.73 -2.09,0.58 -4.2,1.04 -6.32,1.44 -1.77,4.08 -4.56,7.9 -5.08,12.4 0.95,2.73 2.79,5.03 4.05,7.62 2.09,3.75 1.91,8.28 3.99,12.05 1.46,-7.16 -1.06,-14.17 -4.77,-20.2 1.98,-0.16 4.07,0.2 5.99,-0.46 2.03,-1.12 3.95,-2.44 6.11,-3.36 1.66,5.94 1.96,12.21 1.52,18.34 -1.76,5.95 -5.39,11.17 -9.69,15.58 -1.53,1.54 -3,3.2 -3.61,5.33 6.21,-3.29 8.73,-11.61 16.05,-13.31 2.9,-0.84 4.83,1.7 6.78,3.37 -1.01,1.01 -1.94,2.13 -3.09,2.99 -1.85,0.13 -3.8,-0.72 -5.56,-0.03 -3.16,2.28 -5.5,5.44 -7.93,8.43 -0.93,1.33 -2.35,2.7 -2.01,4.48 0.65,4.73 1.83,9.4 1.83,14.2 -0.07,2.95 -0.86,5.82 -1.07,8.77 1.45,-2.12 3.05,-4.36 3.29,-6.99 0.36,-5.8 -0.19,-11.59 -0.7,-17.35 2.6,0.81 5.13,2.73 7.99,2.15 2.02,-0.57 3.9,-1.55 5.87,-2.31 0.34,1.56 1.24,3.12 0.87,4.76 -1.27,5.53 -2.64,11.1 -5.17,16.21 -4.28,7.34 -11.64,12.05 -18.78,16.27 -0.03,0.78 -0.09,2.35 -0.12,3.14 5.22,-3.97 9.9,-8.82 15.89,-11.66 3.7,-0.65 7.7,-0.58 10.56,2.19 -0.05,1.27 -0.1,2.54 -0.13,3.82 -2.6,1.53 -5.23,0.81 -7.6,-0.79 -5.13,2.03 -9.8,5.21 -13.79,9 -2.1,1.66 -1.49,4.44 -1.6,6.77 -0.17,4.54 0.64,9.3 -1.17,13.61 -0.92,2.71 -2.71,5.01 -3.93,7.58 8.1,-5.53 9.1,-16.45 9,-25.42 2.85,1.19 5.38,3.32 8.46,3.84 2.5,-0.51 4.96,-1.49 7.57,-1.21 0.78,4.03 -1.48,7.59 -3.13,11.07 -2.52,5.13 -5.88,10.01 -10.58,13.37 -6.77,4.89 -14.75,7.62 -22.62,10.13 0.03,1.85 0.08,3.7 0.17,5.55 7.14,-4.91 15.28,-10.44 24.4,-9.18 2.43,0.78 5.24,2.74 4.6,5.68 0.22,1.45 -1.48,2.27 -2.6,2.68 -2.42,0.9 -3.82,-2.16 -5.63,-3.24 -5.07,1.52 -9.82,3.86 -14.57,6.16 -1.43,0.78 -3.02,1.54 -3.91,2.98 -1.55,5.51 -2.02,11.37 -4.51,16.6 -1.59,3.65 -4.97,6.06 -6.75,9.6 5.28,-1.9 8.15,-6.89 10.85,-11.43 2.23,-4.31 2.78,-9.21 4.31,-13.77 2.03,1.58 3.65,3.64 5.77,5.13 3.44,0.49 6.96,0.35 10.36,1.23 -0.06,2.09 -0.81,4.03 -2.18,5.62 -4.5,5.71 -8.59,12.25 -15.27,15.65 -4.93,2.34 -9.91,4.82 -15.32,5.83 -4.57,1.12 -9.31,0.8 -13.97,0.82 -1.59,2.69 -3.13,5.41 -4.44,8.26 4.17,-0.69 8.12,-2.69 12.44,-2.3 5.39,0.26 11.81,-1.04 16.06,3.17 1.93,1.38 2.52,4.19 1.11,6.15 -1.12,1.75 -3.43,1.22 -5.16,1.55 -0.78,-1.58 -1.51,-3.19 -2.2,-4.8 -6.69,0.15 -13.51,-0.63 -20.07,1.04 -3.79,1.26 -5.15,5.49 -7.42,8.4 -4.14,6.23 -11.05,9.51 -16.77,13.97 6.94,-0.93 13.16,-4.86 17.92,-9.87 2.74,-2.77 4.88,-6.08 7.74,-8.75 1.43,2.59 2,5.82 4.24,7.89 2.3,1.15 4.94,1.33 7.43,1.92 0.02,1.14 0.05,2.28 0.09,3.43 -8.01,6.02 -16.85,11.69 -26.92,13.24 -8.86,0.19 -17.86,-0.3 -26.4,-2.82 -1.12,-0.41 -2.44,-0.71 -3.09,-1.8 -5.62,-9.62 -7.13,-21.72 -3.2,-32.24 3.03,-9.08 10.24,-16.46 19.06,-20.07 1.94,3.16 2.41,6.88 2.91,10.48 -6.08,3.66 -13.19,6.97 -16.66,13.51 1.94,-0.77 3.76,-1.83 5.39,-3.15 5.2,-4.1 11.08,-7.19 16.9,-10.31 0.41,-6.48 1.11,-12.95 0.93,-19.46 -2.44,-2.07 -6.36,-4.11 -5.64,-7.92 1.35,-3.69 7.72,-4.37 9.19,-0.33 0.32,9.04 -0.05,18.11 -0.16,27.16 2.98,1.17 5.38,-2.23 6.81,-4.44 0.76,-5.44 -4.36,-9.51 -4.7,-14.82 -0.16,-5.83 -1.01,-11.91 1.02,-17.52 1.27,-4.43 4.19,-8.18 7.6,-11.2 2.35,2.48 4.45,5.18 6.42,7.98 -3.3,5.8 -9,10.72 -9.45,17.75 4.13,-4.94 6.67,-11.09 11.46,-15.52 2.46,-2.03 2.14,-5.41 1.61,-8.22 -1,-4.58 -3.22,-8.77 -5.22,-12.96 -2.86,-0.66 -6.86,-0.96 -7.6,-4.48 -1.16,-1.96 0.62,-3.84 2.11,-4.94 2.43,-1.41 4.89,0.76 6.3,2.62 3.25,7.63 6.02,15.52 9.65,22.99 2.28,-1.79 6.16,-5.17 3.51,-8.13 -2.92,-4.44 -7.17,-8.24 -8.36,-13.61 -2.16,-8.22 -3.1,-18.09 3.03,-24.91 2.61,1.97 5.04,4.16 7.54,6.27 -1.97,5.66 -6.19,10.95 -5.28,17.26 2.93,-4.3 4.09,-9.48 6.75,-13.93 1.09,-2.32 3.51,-4.87 1.87,-7.51 -2.39,-4.6 -5.45,-8.81 -8.21,-13.18 -3.38,0.46 -6.7,-0.01 -8.83,-2.91 0.05,-1.18 0.1,-2.37 0.16,-3.55 1.79,-0.79 3.76,-2.7 5.81,-1.55 3.03,2.15 3.95,6.01 6.31,8.75 3.41,3.98 5.78,8.76 9.47,12.5 0.75,-1.6 1.47,-3.22 2.15,-4.85 -4.46,-4.06 -8.89,-8.38 -11.17,-14.09 -3.08,-6.64 -2.97,-14.47 -0.7,-21.34 2.6,1.21 5.08,2.65 7.48,4.23 -0.67,5.72 -3.31,11.49 -1.6,17.25 2.41,-6.2 2.37,-13.08 5.17,-19.21 -2.61,-4.85 -6.9,-8.53 -10.39,-12.74 -2.89,0.26 -6.76,1.42 -8.44,-1.81 -1.72,-2.7 1.73,-4.67 3.49,-6.12 6.32,4.61 10.49,11.49 16.39,16.56 1.4,1.16 3.59,0.25 3.12,-1.75 -2.28,-3.24 -5.7,-5.37 -8.65,-7.92 -6.12,-5 -10.73,-12.53 -10.48,-20.64 2.7,0.73 7.34,0.43 7.7,4.17 0.57,4.03 0.96,8.23 3.23,11.76 0.94,-5.85 -0.82,-11.56 -1.31,-17.34 -3.77,-2.28 -7.37,-4.87 -11.28,-6.9 -2.48,-0.44 -4.91,1.07 -7.41,0.63 -1.61,-0.69 -1.77,-2.51 -2.3,-3.94 1.49,-0.66 2.98,-2.27 4.75,-1.49 6.13,2.38 11.21,6.86 17.44,9.07 -0.41,-1.9 -0.4,-4.34 -2.59,-5.06 -6.62,-3 -14.13,-4.37 -19.78,-9.24 -5.22,-3.39 -8.85,-8.87 -10.09,-14.96 2.98,-0.05 5.97,-0.05 8.96,-0.03 2.13,5.25 3.49,11.08 7.31,15.42 -0.53,-5.23 -3.44,-9.78 -4.53,-14.86 -0.44,-1.19 -0.41,-2.82 -1.64,-3.52 -4.49,-2.9 -9.77,-4.1 -14.77,-5.79 -1.93,1.13 -3.74,2.68 -6.03,2.94 -1.81,-0.9 -2.71,-2.8 -3.81,-4.38 1.48,-1.19 2.79,-2.84 4.73,-3.29 6.6,2.5 13.11,5.41 20.11,6.72 -0.67,-1.42 -0.98,-3.4 -2.83,-3.7 -4.22,-1.55 -9,-1.58 -12.82,-4.12 -5.98,-3.82 -11.89,-8.94 -13.38,-16.22 2.68,-0.1 5.36,-0.12 8.05,-0.17 1.83,4.32 2.77,9.45 6.63,12.5 -0.81,-4.59 -3.08,-8.74 -4.27,-13.23 -1.91,-6.87 -3.59,-13.81 -4.86,-20.83 m 17.13,22.37 c -0.68,5.71 1.82,12.57 7.96,14.06 -0.05,-5.74 -3.14,-11.01 -7.96,-14.06 m 21.52,32.31 c -0.05,3.19 -0.46,6.56 0.94,9.56 1.15,2.98 3.83,4.9 6.37,6.65 -0.09,-3.04 0.76,-6.41 -0.93,-9.16 -1.54,-2.82 -3.93,-5.04 -6.38,-7.05 m 16.67,45.58 c 0.95,2.84 1.95,6.36 5.33,7.06 0.95,-5.5 0.15,-11.64 -4.47,-15.32 -1.18,2.57 -1.81,5.51 -0.86,8.26 m -0.45,42.12 c -0.58,3.12 1.29,5.9 3.4,7.99 3.81,-5.73 2.72,-12.79 2.37,-19.25 -3.33,2.81 -4.93,7.11 -5.77,11.26 m -8.16,44.95 c 0.18,1.98 -0.72,4.91 1.73,5.77 6.26,-3.85 7.21,-11.88 6.18,-18.53 -4.72,2.39 -8.04,7.41 -7.91,12.76 m -19.78,43.65 c -1.57,2.67 -0.83,5.87 -0.81,8.79 7.52,-2.9 12.37,-11.37 10.75,-19.32 -3.96,2.81 -7.55,6.28 -9.94,10.53 m -37.55,39.36 c -2.64,2.36 -3.95,5.8 -4.46,9.23 2.92,-0.85 5.89,-1.69 8.62,-3.11 4.49,-2.6 7.41,-7.07 10.12,-11.36 -5.11,0.34 -10.46,1.63 -14.28,5.24 z"
       id="path3243" />
    <path
       style="fill:#c09300"
       inkscape:connector-curvature="0"
       d="m 452.55,155.53 c 9.08,-9.02 17.82,-18.4 25.84,-28.39 2.1,4.56 1.9,10.63 -2.25,13.98 -8.12,6.99 -14.18,16.71 -24.12,21.37 -1.41,-2.3 -1.86,-5.12 0.53,-6.96 z"
       id="path3245" />
    <path
       style="fill:#c09300"
       inkscape:connector-curvature="0"
       d="m 457.07,163.06 c 7.85,-6.25 13.82,-14.54 21.75,-20.69 1.52,7.6 -5.14,12.81 -9.97,17.48 -5.62,4.61 -10.25,10.28 -15.87,14.88 -0.48,-2.4 -1.88,-4.98 -1.03,-7.41 1.56,-1.58 3.41,-2.85 5.12,-4.26 z"
       id="path3247" />
    <path
       style="fill:#c09300"
       inkscape:connector-curvature="0"
       d="m 300.41,162.54 c -4.11,-4.49 -4.01,-11.69 0.13,-16.13 1.52,2.58 2.72,5.32 3.81,8.1 1.54,3.91 4.21,7.19 6.54,10.64 2.13,3.18 2.75,7.03 3.45,10.71 -6.29,-2.43 -9.57,-8.62 -13.93,-13.32 z"
       id="path3249" />
    <path
       style="fill:#c09300"
       inkscape:connector-curvature="0"
       d="m 461.1,171.12 c 5.39,-5.01 10.02,-10.88 16.22,-14.96 3.12,3.77 -0.88,7.98 -2.84,11.3 -5.93,6.62 -12.98,12.14 -19.88,17.71 -0.08,-2.41 -0.21,-4.83 0,-7.24 1.64,-2.71 4.28,-4.61 6.5,-6.81 z"
       id="path3251" />
    <path
       style="fill:#c09300"
       inkscape:connector-curvature="0"
       d="m 438.81,170.85 c 3.01,-4 6.2,-7.93 10.43,-10.69 -0.03,2.62 0.57,5.62 -1.27,7.82 -5.17,7.04 -11.99,12.67 -18.57,18.35 -0.07,-1.67 -0.19,-3.33 -0.06,-4.99 2.74,-3.84 6.65,-6.7 9.47,-10.49 z"
       id="path3253" />
    <path
       style="fill:#c09300"
       inkscape:connector-curvature="0"
       d="m 295.9,164.38 c 4.02,2.44 7.07,6.12 11,8.69 2.26,1.67 4.96,3.02 6.43,5.52 1.94,3.26 0.9,7.18 0.86,10.74 -5.98,-2.58 -9.38,-8.3 -13.76,-12.78 -3.38,-3.13 -5.61,-7.46 -4.53,-12.17 z"
       id="path3255" />
    <path
       style="fill:#c09300"
       inkscape:connector-curvature="0"
       d="m 436.24,183.23 c 5.02,-4.01 9.33,-8.83 14.4,-12.78 -0.11,2.99 -0.62,6.14 -2.95,8.25 -5.67,5.78 -11.97,10.93 -18.43,15.8 0.02,-1.7 -0.06,-3.41 0.17,-5.09 1.78,-2.54 4.46,-4.23 6.81,-6.18 z"
       id="path3257" />
    <path
       style="fill:#c09300"
       inkscape:connector-curvature="0"
       d="m 463.71,180.72 c 4.24,-3.09 7.67,-7.26 12.37,-9.7 -0.16,3.27 -0.04,6.99 -2.52,9.5 -6.37,6.87 -13.69,12.81 -21.04,18.61 -0.14,-3.19 -0.62,-6.44 0.03,-9.59 3.24,-3.5 7.52,-5.79 11.16,-8.82 z"
       id="path3259" />
    <path
       style="fill:#c09300"
       inkscape:connector-curvature="0"
       d="m 318.02,181.93 c -1.38,-1.99 -0.49,-4.25 0.42,-6.2 5.9,7.68 12.71,14.6 18.58,22.3 -8.99,-0.79 -15.08,-8.73 -19,-16.1 z"
       id="path3261" />
    <path
       style="fill:#c09300"
       inkscape:connector-curvature="0"
       d="m 295.93,188.83 c -0.98,-3.58 -0.97,-7.35 -0.52,-11 5.35,4.56 9.99,9.9 15.5,14.3 4.18,2.73 2.3,8.37 3.34,12.53 -4.32,-1.58 -7.91,-4.59 -11.4,-7.49 -2.6,-2.49 -5.53,-4.93 -6.92,-8.34 z"
       id="path3263" />
    <path
       style="fill:#c09300"
       inkscape:connector-curvature="0"
       d="m 429.11,199.31 c 7.08,-7.02 14.62,-13.61 22.4,-19.84 -0.04,1.93 0.22,3.92 -0.26,5.82 -2.16,3.09 -5.13,5.49 -7.75,8.19 -4.34,3.92 -8.46,8.2 -13.54,11.19 -0.34,-1.78 -0.62,-3.57 -0.85,-5.36 z"
       id="path3265" />
    <path
       style="fill:#c09300"
       inkscape:connector-curvature="0"
       d="m 317.37,185.75 c 3.54,3.42 6.48,7.45 10.32,10.56 3,2.44 7.26,3.43 9.2,7.04 1.19,1.57 -0.44,3.25 -0.91,4.76 -2.94,-0.74 -6.03,-1.6 -8.19,-3.88 -3.12,-3.21 -6.47,-6.25 -9.15,-9.86 -1.87,-2.49 -1.34,-5.72 -1.27,-8.62 z"
       id="path3267" />
    <path
       style="fill:#c09300"
       inkscape:connector-curvature="0"
       d="m 411.74,203.3 c 2.17,-7.56 8.44,-12.84 13.89,-18.1 0.01,2.89 -0.22,6.01 -2.17,8.32 -3.28,3.93 -7.37,7.12 -11.72,9.78 z"
       id="path3269" />
    <path
       style="fill:#c09300"
       inkscape:connector-curvature="0"
       d="m 453.47,201.47 c 7.05,-5.12 13.54,-10.94 20.16,-16.59 0.29,2.48 -0.22,5.01 -1.69,7.06 -5.68,7.84 -13.25,14.06 -21.09,19.64 -0.12,-3.5 -0.83,-7.88 2.62,-10.11 z"
       id="path3271" />
    <path
       style="fill:#c09300"
       inkscape:connector-curvature="0"
       d="m 435.48,203.48 c 4.8,-4.2 9.08,-9.06 14.51,-12.46 -0.13,7.13 -6.23,11.61 -11.04,15.92 -3.32,2.57 -6.45,6.11 -10.93,6.35 0.17,-4.63 4.53,-6.93 7.46,-9.81 z"
       id="path3273" />
    <path
       style="fill:#c09300"
       inkscape:connector-curvature="0"
       d="m 460.6,207.62 c 4.57,-4.08 8.33,-9.07 13.52,-12.43 -0.56,7.14 -5.37,12.86 -10.03,17.88 -3.46,3.47 -6.61,7.54 -11.1,9.71 -1.39,-0.91 -2.41,-2.22 -3.45,-3.48 3.09,-4.43 7.08,-8.08 11.06,-11.68 z"
       id="path3275" />
    <path
       style="fill:#c09300"
       inkscape:connector-curvature="0"
       d="m 296.88,197.34 c 6.03,1.91 11.13,5.9 16.04,9.76 3.54,2.77 3.89,7.51 4.54,11.61 -9.64,-3.43 -18.51,-10.94 -20.58,-21.37 z"
       id="path3277" />
    <path
       style="fill:#c09300"
       inkscape:connector-curvature="0"
       d="m 316.59,198.4 c 2.43,1.52 4.47,3.55 6.66,5.38 3.84,3.24 9.02,4.65 12.3,8.62 1.41,1.42 1.16,3.59 1.62,5.4 -3,-0.02 -6,-0.67 -8.37,-2.58 -3.97,-2.96 -9.3,-4.88 -11.27,-9.8 -1.27,-2.14 -1.01,-4.65 -0.94,-7.02 z"
       id="path3279" />
    <path
       style="fill:#c09300"
       inkscape:connector-curvature="0"
       d="m 436.51,211.48 c 4.75,-3.17 8.75,-7.38 13.7,-10.26 -0.23,2.38 -0.52,4.91 -2.15,6.8 -3.43,4.25 -7.67,7.88 -12.37,10.66 -1.82,1.17 -4.07,0.99 -6.12,1.21 -0.34,-4.4 4.03,-6.13 6.94,-8.41 z"
       id="path3281" />
    <path
       style="fill:#c09300"
       inkscape:connector-curvature="0"
       d="m 340.96,202.41 c 5.01,2.36 8.01,7.57 8.32,13.01 -4.05,-3.27 -8.85,-7.2 -8.32,-13.01 z"
       id="path3283" />
    <path
       style="fill:#c09300"
       inkscape:connector-curvature="0"
       d="m 340.32,209.34 c 4.39,3.76 8.49,8.38 9.91,14.14 -6.18,-1.57 -11.21,-7.55 -9.91,-14.14 z"
       id="path3285" />
    <path
       style="fill:#c09300"
       inkscape:connector-curvature="0"
       d="m 409.45,222.98 c 4.72,-5.47 10.15,-11.56 17.61,-12.88 -0.71,2.34 -1.65,4.72 -3.6,6.32 -3.43,3.01 -6.9,6.38 -11.35,7.76 -0.67,-0.3 -1.99,-0.9 -2.66,-1.2 z"
       id="path3287" />
    <path
       style="fill:#c09300"
       inkscape:connector-curvature="0"
       d="m 430.49,224.81 c 6.31,-3.59 11.73,-8.46 17.76,-12.44 0.53,3.04 -0.25,6.23 -2.31,8.56 -3.76,4.3 -8.63,7.89 -14.21,9.35 -0.43,-1.83 -0.85,-3.65 -1.24,-5.47 z"
       id="path3289" />
    <path
       style="fill:#c09300"
       inkscape:connector-curvature="0"
       d="m 303.58,214.14 c 5.02,2.5 9.71,5.7 14.09,9.19 1.55,2.9 0.98,6.41 1.02,9.58 -7.54,-3.56 -12.44,-11.13 -15.11,-18.77 z"
       id="path3291" />
    <path
       style="fill:#c09300"
       inkscape:connector-curvature="0"
       d="m 319.31,213.47 c 4.98,1.76 9.8,4.09 14.24,6.97 3.18,1.83 2.55,5.93 3.07,9.04 -5.55,-0.12 -9.73,-4.02 -13.71,-7.39 -2.53,-2.11 -3.21,-5.53 -3.6,-8.62 z"
       id="path3293" />
    <path
       style="fill:#c09300"
       inkscape:connector-curvature="0"
       d="m 421.46,220.42 c 1.77,-1.51 3.71,-2.8 5.78,-3.86 0.74,6.92 -6.16,10.51 -11.19,13.51 -1.52,1.19 -3.45,0.54 -5.16,0.33 2.58,-4.24 6.9,-6.81 10.57,-9.98 z"
       id="path3295" />
    <path
       style="fill:#c09300"
       inkscape:connector-curvature="0"
       d="m 337.83,217.82 c 4.39,1.28 6.89,5.33 9.73,8.59 1.38,1.37 1.55,3.34 1.83,5.16 -5.85,-2 -11.19,-7.32 -11.56,-13.75 z"
       id="path3297" />
    <path
       style="fill:#c09300"
       inkscape:connector-curvature="0"
       d="m 433.6,233.62 c 5.36,-3.67 10.55,-7.57 15.83,-11.35 -0.41,2.97 -0.38,6.36 -2.41,8.78 -4.02,4.53 -9.32,8.23 -15.4,9.17 0.02,-2.29 -0.31,-5.23 1.98,-6.6 z"
       id="path3299" />
    <path
       style="fill:#c09300"
       inkscape:connector-curvature="0"
       d="m 320.8,224.99 c 4.36,1.23 7.98,4.03 11.65,6.58 2.68,1.86 4.43,4.68 5.31,7.79 -6.16,-1.07 -12.28,-3.97 -15.79,-9.34 -1.11,-1.44 -0.92,-3.34 -1.17,-5.03 z"
       id="path3301" />
    <path
       style="fill:#c09300"
       inkscape:connector-curvature="0"
       d="m 415.35,233.31 c 3.8,-3.61 7.76,-7.41 12.85,-9.08 0.19,1.58 0.26,3.16 0.22,4.74 -4.13,4.33 -9.41,7.48 -14.85,9.87 0.13,-1.96 0.23,-4.09 1.78,-5.53 z"
       id="path3303" />
    <path
       style="fill:#c09300"
       inkscape:connector-curvature="0"
       d="m 432.66,242.82 c 5.94,-3.7 12.07,-7.09 18.02,-10.77 1.27,4.72 -2.43,8.16 -5.7,10.89 -3.63,2.8 -7.95,4.5 -12.31,5.8 -0.74,-1.79 -2.54,-4.75 -0.01,-5.92 z"
       id="path3305" />
    <path
       style="fill:#c09300"
       inkscape:connector-curvature="0"
       d="m 413.73,244.59 c 3.67,-5.44 9.16,-9.4 14.94,-12.34 0.32,5.95 -5.36,9.06 -9.82,11.55 -1.53,1.04 -3.37,0.96 -5.12,0.79 z"
       id="path3307" />
    <path
       style="fill:#c09300"
       inkscape:connector-curvature="0"
       d="m 322.33,235.65 c 5.42,1.09 10.05,4.37 14.45,7.55 2.17,1.35 2.15,4.13 2.84,6.32 -6.28,-1.24 -13.31,-3.34 -16.93,-9.06 -0.34,-1.58 -0.28,-3.21 -0.36,-4.81 z"
       id="path3309" />
    <path
       style="fill:#c09300"
       inkscape:connector-curvature="0"
       d="m 415.35,250.5 c 2.49,-5.39 8.4,-7.52 12.68,-11.14 0.33,0.65 0.99,1.97 1.32,2.62 -2.81,5.12 -8.2,8.25 -14,8.52 z"
       id="path3311" />
    <path
       style="fill:#c09300"
       inkscape:connector-curvature="0"
       d="m 444.88,244.85 c 2.11,-1.35 4.35,-2.47 6.74,-3.24 0.24,2.53 -0.14,5.1 -2.19,6.82 -5.04,4.7 -11.86,6.97 -18.51,8.24 -0.07,-1.6 -0.13,-3.2 -0.18,-4.79 4.65,-2.48 9.68,-4.21 14.14,-7.03 z"
       id="path3313" />
    <path
       style="fill:#c09300"
       inkscape:connector-curvature="0"
       d="m 323.48,246.58 c 5.66,1.54 11.09,3.82 16.78,5.27 2.4,0.48 2.86,2.98 3.27,5 -5.47,-0.7 -11.13,-1.57 -15.94,-4.45 -2.11,-1.3 -3.2,-3.63 -4.11,-5.82 z"
       id="path3315" />
    <path
       style="fill:#c09300"
       inkscape:connector-curvature="0"
       d="m 442.6,254.52 c 3.51,-1.53 6.7,-3.75 10.38,-4.86 -0.26,1.96 0.25,4.44 -1.51,5.84 -5.87,5.21 -13.48,8.45 -21.35,8.74 0,-1.43 0.01,-2.87 0.02,-4.3 3.99,-2.18 8.33,-3.56 12.46,-5.42 z"
       id="path3317" />
    <path
       style="fill:#c09300"
       inkscape:connector-curvature="0"
       d="m 345.1,253.24 c 4.66,0.75 10.38,1.46 12.72,6.24 -5,0 -9.87,-2.01 -12.72,-6.24 z"
       id="path3319" />
    <path
       style="fill:#c09300"
       inkscape:connector-curvature="0"
       d="m 326.43,255.32 c 5.11,0.08 9.97,1.9 14.75,3.55 3,0.99 5.18,3.36 7.24,5.64 -5.12,0.54 -10.5,0.43 -15.25,-1.76 -3.13,-1.49 -4.94,-4.63 -6.74,-7.43 z"
       id="path3321" />
    <path
       style="fill:#c09300"
       inkscape:connector-curvature="0"
       d="m 348.07,260.06 c 4.54,-0.05 9.99,0.41 12.67,4.65 -4.76,0.64 -9.38,-1.24 -12.67,-4.65 z"
       id="path3323" />
    <path
       style="fill:#c09300"
       inkscape:connector-curvature="0"
       d="m 413.68,264.64 c 4,-1.84 8.5,-1.11 12.75,-1.18 0.05,0.64 0.16,1.93 0.21,2.57 -4.68,0.94 -9.43,1.63 -14.21,1.38 0.31,-0.69 0.94,-2.08 1.25,-2.77 z"
       id="path3325" />
    <path
       style="fill:#c09300"
       inkscape:connector-curvature="0"
       d="m 332.1,283.12 c 2.86,-4.02 6.33,-7.79 11.12,-9.46 -1.11,2.38 -2.57,4.55 -3.86,6.82 4.09,-0.31 7.46,-3.06 11.55,-3.33 6.22,-0.7 12.64,-0.47 18.69,1.26 5.01,1.6 9.61,4.2 14.11,6.87 3.3,2.02 7.12,2.87 10.65,4.41 4.05,1.76 6.31,6.32 10.75,7.34 3.56,0.44 7.16,-0.29 10.73,0.12 2.99,0.98 4.21,4.25 5.64,6.76 -0.89,0.96 -1.78,1.92 -2.65,2.88 2.89,1.18 5.75,2.73 7.33,5.58 -3.93,-1.17 -7.56,-3.26 -11.66,-3.81 3.09,4.82 10.06,4.32 13,9.22 -5.6,0.52 -9.83,-3.66 -14.61,-5.79 -0.25,0.52 -0.75,1.56 -1,2.08 6.02,2.96 12.7,4.81 18.02,9.04 2.38,1.75 2.77,4.87 3.73,7.47 -4.75,-0.11 -10.02,-0.11 -13.86,-3.35 -2.01,-1.68 -4.67,-2.72 -7.27,-1.82 -2.51,2.22 -4.08,5.28 -6.43,7.67 -3.11,-2 -5.26,-5.36 -8.92,-6.45 1.92,4.79 7.22,8.53 6.12,14.2 -0.8,1.12 -1.87,2.57 -3.4,2.52 -2.9,0.55 -4.76,-2.25 -5.89,-4.46 -3,-6.76 -1.76,-14.56 -4.89,-21.29 -1.27,0.31 -2.52,0.63 -3.77,0.98 0.92,1.47 1.86,2.94 2.78,4.42 -0.93,3.19 -3.58,6.16 -2.88,9.64 2.44,6.24 9.74,9.48 10.79,16.42 0.4,4.69 1.47,9.84 -0.58,14.27 -4,2.85 -9.04,4.02 -12.68,7.41 -2.22,2.24 -3.99,4.87 -5.85,7.4 -2.53,-2.07 -5.72,-1.39 -8.72,-1.34 3.55,-1.88 7.44,-3.35 10.03,-6.58 3.86,-4.73 10,-6.74 13.87,-11.42 0.41,-3.43 0.24,-6.99 -0.76,-10.31 -1.33,-3.89 -4.72,-6.49 -6.86,-9.89 -1.95,-2.38 -0.85,-5.63 -1.41,-8.42 -2.02,-2.26 -5.27,-2.77 -7.59,-4.63 -4.4,-3.67 -8.52,-8.11 -9.95,-13.82 -1.61,-3.92 -1.01,-8.47 -3.47,-12.06 -0.73,2.11 -1.32,4.27 -1.9,6.43 -5.13,-1.86 -9.02,-5.92 -11.53,-10.68 -1.94,5.29 -6.98,8.36 -11.74,10.81 -4.61,1.58 -7.81,-2.38 -10.14,-5.69 -1.57,2.34 -3.39,4.55 -5.82,6.05 0.79,-3.11 2.36,-5.97 5.12,-7.72 -2.93,-2.67 -6.01,-5.27 -8.08,-8.69 3.28,-5.06 7.68,-10.35 13.94,-11.47 -2.69,4.19 -7.05,6.83 -10.39,10.43 4.11,-0.71 8.15,-2.5 10.59,-6.02 m 18.17,-2.72 c -4.76,1.82 -7.1,6.58 -8.9,10.99 -1.37,3.45 -5.71,3.94 -7.77,6.66 -0.02,0.85 -0.06,2.53 -0.07,3.37 2.11,-1.48 4.15,-3.08 5.98,-4.91 3.82,-3.54 5.54,-8.65 8.75,-12.67 4.56,-1.15 8.99,1.15 13.38,2.09 0.04,-0.73 0.13,-2.18 0.17,-2.91 -3.6,-1.65 -7.53,-2.99 -11.54,-2.62 m -17.9,9.84 c 0.02,-1.72 0.09,-3.43 0.1,-5.14 -2.69,3.56 -5.3,7.19 -8.03,10.72 7.16,-0.05 14.58,-3.88 16.94,-11 -3.18,1.5 -6.08,3.49 -9.01,5.42 m 60.95,9.22 c 2.5,5.28 7.68,8.62 12.75,11.14 -2.58,-5.27 -7.63,-8.67 -12.75,-11.14 m -19.21,2.13 c 1.54,5.88 6.64,9.69 11.49,12.81 3.78,2.29 7.02,5.34 10.8,7.62 -2,-4.99 -7.04,-7.28 -11.1,-10.29 -4.19,-2.86 -6.85,-7.46 -11.19,-10.14 m -7.38,6.06 c 0.61,5.16 4.32,9.25 8.04,12.57 2.97,2.56 5.55,5.64 9.09,7.46 0.04,-1.52 0.06,-3.04 0.06,-4.55 -3.74,-2.62 -8.22,-4.27 -11.28,-7.75 -1.95,-2.61 -3.07,-5.87 -5.91,-7.73 m 25.7,-0.01 c 1.12,2.67 3.36,4.63 5.91,5.92 -1.24,-2.6 -3.35,-4.64 -5.91,-5.92 m -20.84,2.17 c 1.33,4.19 4.92,7.12 8.87,8.75 -2.08,-3.67 -5.21,-6.68 -8.87,-8.75 z"
       id="path3327" />
    <path
       style="fill:#c09300"
       inkscape:connector-curvature="0"
       d="m 432.3,277.55 c 5.37,-0.52 10.59,-2.49 16.06,-1.97 -2.18,4.14 -6.83,5.82 -11.29,5.29 -5.33,-0.51 -11.62,1.44 -16.11,-2.31 3.77,-0.42 7.58,-0.42 11.34,-1.01 z"
       id="path3329" />
    <path
       style="fill:#c09300"
       inkscape:connector-curvature="0"
       d="m 415.44,280.07 c 7.46,2.89 15.58,2.96 23.44,3.88 -7.86,5.06 -17.45,0.89 -25.39,-1.84 0.48,-0.51 1.46,-1.53 1.95,-2.04 z"
       id="path3331" />
    <path
       style="fill:#c09300"
       inkscape:connector-curvature="0"
       d="m 409.47,284.05 c 6.58,0.59 13.05,2.59 19.18,5.02 -4.07,2.27 -9.67,2.8 -13.53,-0.17 -2.12,-1.32 -3.97,-3.02 -5.65,-4.85 z"
       id="path3333" />
    <path
       style="fill:#c09300"
       inkscape:connector-curvature="0"
       d="m 329.04,291.45 c 0.93,-1.53 3.63,-0.04 2.36,1.48 -0.95,1.39 -3.77,0.03 -2.36,-1.48 z"
       id="path3335" />
    <path
       style="fill:#c09300"
       inkscape:connector-curvature="0"
       d="m 422.44,333.28 c 8.26,1.32 17.34,0.83 24.51,5.8 11.19,7.58 21.7,16.27 30.65,26.45 -8.87,-2.25 -16.52,-7.33 -24.35,-11.81 -6.14,-3.7 -11.07,-9.12 -17.39,-12.54 0.65,1.86 1.37,3.79 2.88,5.15 7.42,7.26 16.55,12.4 25.59,17.34 5.77,3.23 12.43,5.36 16.87,10.52 -7.58,-0.85 -14.24,-5 -20.75,-8.67 -9.29,-5.76 -18.65,-11.78 -26.08,-19.89 -3.92,-4.17 -8.08,-8.11 -11.93,-12.35 z"
       id="path3337" />
    <path
       style="fill:#c09300"
       inkscape:connector-curvature="0"
       d="m 413.62,334.51 c 1.88,-0.97 4.33,-0.49 5.63,1.23 11.15,10.98 23.15,21.1 36.07,29.93 3.71,2.46 8.15,3.98 10.97,7.62 -3.47,0.27 -6.94,0.22 -10.41,0.24 -2.84,-3.59 -5.39,-7.54 -9.14,-10.27 -4.18,-3.11 -7.79,-6.9 -11.91,-10.08 -4.67,-3.37 -8.41,-7.87 -13.18,-11.12 0.91,6.35 6.17,10.63 10.77,14.53 5.69,5.18 12.47,9.65 15.92,16.79 -1.85,0.08 -3.69,0.13 -5.53,0.19 -6.05,-6.44 -10.01,-15.18 -18.2,-19.32 2.44,7.56 9.29,12.42 13.23,19.14 -2.07,0.08 -4.13,0.12 -6.18,0.14 -4.04,-7.54 -8.29,-14.98 -13.23,-21.96 -1.22,-1.87 -2.89,-3.37 -5.01,-4.1 2.33,10.01 9.53,17.64 14.07,26.57 -0.87,0.03 -2.6,0.07 -3.46,0.1 -2.37,-4.73 -3.48,-10.77 -8.69,-13.33 0.85,4.54 2.92,8.73 3.9,13.24 -0.83,0.03 -2.5,0.08 -3.34,0.11 -4.2,-5.89 -6.56,-12.87 -10.82,-18.72 -0.08,6.25 1.85,12.21 4.28,17.9 -3.2,-1.64 -5.85,-4.44 -9.43,-5.25 -6.59,2.02 -12.39,5.98 -18.6,8.89 3.87,-6.46 11.56,-8.21 17.48,-12.13 0,-5.1 -0.19,-10.24 0.77,-15.29 1.78,1.8 3.43,3.72 5.16,5.57 0.11,-4.35 0.01,-8.7 0.18,-13.04 1.25,0.23 2.49,0.51 3.75,0.78 0.96,-3.1 2.14,-6.43 4.95,-8.36 z"
       id="path3339" />
    <path
       style="fill:#c09300"
       inkscape:connector-curvature="0"
       d="m 494.3,372.96 c 2.03,-1.4 5.05,-4.17 7.35,-1.65 2.37,1.49 1.69,4.42 1.79,6.78 -1.93,0.61 -4.11,2.3 -6.06,0.83 -2.5,-0.92 -2.89,-3.66 -3.08,-5.96 z"
       id="path3341" />
    <path
       style="fill:#c09300"
       inkscape:connector-curvature="0"
       d="m 290.55,373.81 c 1.26,-3.62 7.13,-4.37 8.73,-0.65 0.18,1.28 0.3,2.57 0.38,3.86 -1.79,1.03 -3.43,2.76 -5.65,2.63 -1.84,-1.27 -4.98,-3.25 -3.46,-5.84 z"
       id="path3343" />
    <path
       style="fill:#c09300"
       inkscape:connector-curvature="0"
       d="m 315.66,375.6 c 15.8,-0.2 31.6,-0.03 47.4,0.03 0.3,2.5 -0.01,5.44 1.89,7.4 2.74,0.82 5.69,1.06 8.19,2.59 4.26,-2.73 8.69,-5.27 13.52,-6.85 4.35,-1.39 8.61,-3.81 13.33,-3.23 3.06,0.66 5.71,2.88 8.96,2.73 3.08,0.46 4.97,-3.02 8.02,-2.72 20.33,-0.09 40.66,-0.01 60.99,0.11 -2.32,4.84 -4.98,9.83 -4.92,15.35 -0.62,9.39 5.07,17.44 7.75,26.07 -53.61,0.17 -107.22,0.06 -160.83,0.05 4.13,-6.8 8.85,-14.37 7.5,-22.7 -1.84,-7.31 -6.59,-13.54 -11.8,-18.83 m 78.47,8.58 c -1.44,4.08 -3.27,8.07 -6.01,11.45 -8.1,0 -16.22,-0.42 -24.28,-1.14 -6.46,-0.4 -12.85,-3.1 -19.33,-1.86 -3.19,0.56 -4.55,3.52 -5.56,6.23 2.45,-0.84 4.93,-2.27 7.62,-1.68 5.9,1.13 11.72,2.68 17.63,3.77 13.53,2.16 27.72,2.46 40.83,-2.02 2.78,-1.13 4.98,-3.25 7.28,-5.11 0.03,-2.77 -0.33,-5.52 -1.2,-8.15 -5.31,-0.89 -10.3,0.91 -14.96,3.27 0.93,-2.87 3.18,-4.9 4.98,-7.2 0.17,-1.69 -0.56,-3.27 -1,-4.85 -2.29,2.15 -5.11,4.11 -6,7.29 m 41.39,11.41 c -5.85,0.22 -11.71,-0.15 -17.55,0.16 -5.01,0.85 -8.42,5.04 -11.65,8.59 -3.04,3.4 -7.45,4.92 -11.22,7.29 2.92,0.05 6.08,0.68 8.84,-0.63 4.76,-1.85 8.15,-5.85 11.88,-9.16 1.5,-1.23 2.88,-3.33 5.11,-2.81 5.58,0.66 11.23,2.11 16.86,1.05 3.33,-2.34 4.81,-6.25 6.43,-9.81 1.72,-4.11 4.36,-7.75 6.06,-11.88 -8.71,1.45 -10.67,10.88 -14.76,17.2 m 11.02,8.74 c 8.19,-5.88 8.68,-16.98 10.55,-26.03 -7.33,6.64 -8.47,16.93 -10.55,26.03 m -24.43,-21.5 c 0.95,1.06 1.9,2.12 2.87,3.18 1.37,-1.08 2.73,-2.17 4.1,-3.26 -0.71,-0.95 -1.46,-1.87 -2.24,-2.75 -1.78,0.56 -3.22,1.79 -4.73,2.83 m -84.09,3.22 c 2.88,2.12 6.59,1.47 9.93,1.95 1.36,0.22 2.56,-0.63 3.82,-0.99 0.12,-0.87 0.37,-2.61 0.49,-3.47 -2.87,0.13 -5.78,0.53 -8.58,-0.28 -2.39,-0.87 -4.2,1.28 -5.66,2.79 m 78.57,1.81 c 1.44,0.94 2.68,2.52 4.47,2.72 3.22,-0.14 6.53,0.6 9.59,-0.77 0.05,-0.63 0.15,-1.87 0.21,-2.49 -0.46,-0.46 -1.37,-1.37 -1.83,-1.82 -2.6,1.72 -5.39,1.43 -7.99,-0.11 -1.5,0.8 -2.99,1.62 -4.45,2.47 z"
       id="path3345" />
    <path
       style="fill:#c09300"
       inkscape:connector-curvature="0"
       d="m 492.03,379.63 c 5.62,2.29 6.82,8.9 6.99,14.3 -0.16,7.64 0.9,16.1 -4.09,22.58 -5.35,0.85 -8.68,-4.29 -11.16,-8.22 -3.39,-6.28 -6.92,-12.96 -7.03,-20.26 0.74,-4.48 5.28,-7.2 9.58,-7.44 0.49,7.06 -1.18,14.87 2.86,21.19 0.93,1.91 2.9,2.84 4.74,3.69 -0.03,-6.74 -4.3,-12.68 -3.84,-19.46 -0.14,-2.31 1.01,-4.36 1.95,-6.38 z"
       id="path3347" />
    <path
       style="fill:#c09300"
       inkscape:connector-curvature="0"
       d="m 300.89,392.85 c -0.84,-5.24 4.5,-7.95 8.7,-9.12 -0.26,6.03 -1.64,12.59 1.34,18.18 1.03,2.15 3.06,3.5 4.97,4.8 0.13,-3.58 -1.06,-6.94 -2.18,-10.27 -1.31,-3.78 -1.04,-7.86 -0.41,-11.74 1.62,0.03 3.91,-0.82 4.54,1.31 3.84,7.38 3.52,16.23 2.27,24.25 -0.51,2.63 -1.97,6.3 -5.15,6.19 -2.32,0.42 -3.94,-1.6 -5.32,-3.14 -4.67,-5.87 -7.61,-13.08 -8.76,-20.46 z"
       id="path3349" />
    <path
       style="fill:#c09300"
       inkscape:connector-curvature="0"
       d="m 280.57,413.42 c 2.57,-1.25 6.25,0.7 6.31,3.62 0.49,2.5 -2.2,3.89 -4.07,4.8 -4.61,0.37 -7.14,-6.71 -2.24,-8.42 z"
       id="path3351" />
    <path
       style="fill:#c09300"
       inkscape:connector-curvature="0"
       d="m 507.03,417.01 c 0.71,-2.08 2.6,-4.07 4.96,-3.93 2.46,-0.04 3.69,2.51 5.23,4.03 -1.53,1.97 -2.76,5.62 -5.9,4.67 -2.06,-0.81 -3.87,-2.54 -4.29,-4.77 z"
       id="path3353" />
    <path
       style="fill:#c09300"
       inkscape:connector-curvature="0"
       d="m 319.97,424.45 c 6.21,-1.59 12.49,-3.47 18.97,-3.3 19.94,-0.19 39.05,6.74 56.97,14.86 3.26,1.74 6.59,-0.2 9.46,-1.75 16.79,-6.82 34.29,-13.28 52.68,-13.11 7.49,-0.3 14.64,2.37 21.98,3.39 4.34,0.79 7.6,-3.59 11.96,-2.74 5.12,0.66 9.9,3.13 13.92,6.31 -1.53,1.12 -3.29,1.96 -4.61,3.32 -1.2,2.02 -2.21,4.38 -4.51,5.38 -11.39,5.76 -24.91,6.22 -37.18,3.42 -5.74,-1.82 -11.15,-4.63 -16.3,-7.71 6.02,-1.94 12.42,-1.68 18.61,-2.66 1.7,-0.18 3.19,-1.05 4.63,-1.9 -10.4,-2.79 -21.4,-1.35 -31.4,2.26 -8.18,2.87 -16.49,5.35 -24.65,8.25 -1.46,0.48 -2.78,1.27 -4.07,2.07 9.37,5.16 19.37,9.24 28.27,15.21 -0.27,2.59 -0.71,5.16 -1.17,7.74 -10.79,-7.97 -22.48,-14.59 -34.55,-20.41 -11.56,5.88 -22.37,13.06 -33.31,19.99 -0.82,-2.43 -1.53,-4.89 -2.3,-7.34 9.22,-5.81 19.14,-10.38 28.73,-15.52 -7.36,-3.6 -15.41,-5.48 -23.11,-8.19 -11.53,-4.05 -24.4,-7.77 -36.48,-3.94 7.01,3.52 15.29,1.69 22.51,4.48 -6.26,3.68 -12.69,7.51 -19.98,8.67 -11.79,1.87 -24.4,0.59 -34.9,-5.33 -1.3,-1.44 -2.04,-3.28 -3.26,-4.76 -1.52,-1.13 -3.21,-2 -4.76,-3.06 4.14,-3.04 8.83,-5.62 14,-6.24 4.81,-0.5 9.1,2.78 13.85,2.61 z"
       id="path3355" />
  </g>
  <g
     transform="translate(-0.215,2.927071)"
     id="#bf9300fe">
    <path
       style="fill:#bf9300"
       inkscape:connector-curvature="0"
       d="m 434.29,91.98 c 2.6,-1.31 5.47,-1.81 8.06,-0.17 -0.25,0.77 -0.74,2.32 -0.98,3.09 -2.98,1.11 -5.8,0.04 -7.08,-2.92 z"
       id="path3358" />
    <path
       style="fill:#bf9300"
       inkscape:connector-curvature="0"
       d="m 289.05,112.06 c 1.69,-0.89 3.51,-3.12 5.56,-1.89 1.29,0.56 2.18,1.7 3.21,2.61 -1.83,0.86 -3.61,2.29 -5.75,1.96 -1.02,-0.89 -2.03,-1.78 -3.02,-2.68 z"
       id="path3360" />
    <path
       style="fill:#bf9300"
       inkscape:connector-curvature="0"
       d="m 422.52,196.53 c 1.25,-1.27 3.09,-1.44 4.73,-1.86 -1.4,4.67 -5.54,7.47 -8.83,10.74 -2.51,2.42 -5.12,4.74 -8.01,6.68 0.01,-1.57 0.02,-3.28 1.24,-4.46 3.4,-3.9 6.96,-7.7 10.87,-11.1 z"
       id="path3362" />
    <path
       style="fill:#bf9300"
       inkscape:connector-curvature="0"
       d="m 437.89,269.97 c 3.89,-1.15 7.84,-4 12,-2.3 -1.26,2.05 -2.63,4.29 -5.07,5.05 -6.29,2.34 -13.05,3.24 -19.72,3.48 0.48,-1.21 1.04,-2.37 1.67,-3.5 3.69,-0.98 7.58,-1.16 11.12,-2.73 z"
       id="path3364" />
  </g>
  <g
     transform="translate(-0.215,2.927071)"
     id="#1611001d">
    <path
       style="opacity:0.11000001;fill:#161100"
       inkscape:connector-curvature="0"
       d="m 268.03,110.26 c 0.97,-1.24 3.81,-0.01 2.62,1.54 -0.98,1.21 -3.85,0.01 -2.62,-1.54 z"
       id="path3367" />
  </g>
  <g
     transform="translate(-0.215,2.927071)"
     id="#bf9200fd">
    <path
       style="fill:#bf9200"
       inkscape:connector-curvature="0"
       d="m 340.75,236.91 c 4.15,1.9 8.09,4.52 10.57,8.45 -4.57,-0.63 -11,-2.75 -10.57,-8.45 z"
       id="path3370" />
    <path
       style="fill:#bf9200"
       inkscape:connector-curvature="0"
       d="m 432.02,265.99 c 6.9,-1.3 13.29,-4.25 19.39,-7.64 -0.23,1.51 -0.47,3.03 -0.71,4.54 -7.02,2.88 -14.03,6.25 -21.64,7.17 0.67,-1.55 0.71,-4.11 2.96,-4.07 z"
       id="path3372" />
    <path
       style="fill:#bf9200"
       inkscape:connector-curvature="0"
       d="m 398.45,280.54 c 4.39,0.49 6.54,4.85 10.25,6.69 2.58,1.29 5.36,2.45 7.04,4.95 -7.72,0.08 -13.16,-5.88 -17.29,-11.64 z"
       id="path3374" />
  </g>
  <g
     transform="translate(-0.215,2.927071)"
     id="#c09300fe">
    <path
       style="fill:#c09300"
       inkscape:connector-curvature="0"
       d="m 333.96,266.75 c 4.83,-0.2 9.59,0.88 14.07,2.62 -3.79,1.01 -7.63,1.99 -10.96,4.16 -1.63,-1.97 -2.95,-4.17 -3.11,-6.78 z"
       id="path3377" />
    <path
       style="fill:#c09300"
       inkscape:connector-curvature="0"
       d="m 350.97,270.86 c 6.17,1.19 12.54,0.02 18.66,1.58 4.53,0.68 7.83,4.12 11.78,6.12 3.38,1.8 7.29,2.03 10.87,3.25 2.61,1.17 4.52,3.4 6.81,5.05 3.46,2.64 7.68,4.21 10.64,7.48 -7.04,0.23 -11.57,-5.89 -17.11,-9.18 -2.11,-1.41 -4.83,0.53 -6.97,-0.79 -4.75,-2.63 -9.24,-5.86 -14.43,-7.61 -4.62,-1.43 -9.51,-1.27 -14.27,-1.85 -3.07,-0.46 -6.04,0.5 -8.95,1.32 1,-1.79 2.01,-3.57 2.97,-5.37 z"
       id="path3379" />
    <path
       style="fill:#c09300"
       inkscape:connector-curvature="0"
       d="m 316.45,308.06 c -3.3,-4.89 0.02,-11.42 5.41,-12.9 -1.58,4.39 -3.55,8.63 -5.41,12.9 z"
       id="path3381" />
  </g>
</svg>
